<?xml version="1.0" encoding="utf-8"?>
<!-- Generator: Adobe Illustrator 25.0.0, SVG Export Plug-In . SVG Version: 6.00 Build 0)  -->
<svg version="1.1" id="Layer_1" xmlns="http://www.w3.org/2000/svg" xmlns:xlink="http://www.w3.org/1999/xlink" x="0px" y="0px"
	 viewBox="0 0 500 500" style="enable-background:new 0 0 500 500;" xml:space="preserve">
<style type="text/css">
	.st0{fill:#470137;}
	.st1{fill-rule:evenodd;clip-rule:evenodd;fill:#FF61F6;}
	.st2{fill:#FF61F6;}
</style>
<g id="Dreamweaver" transform="translate(1887 308)">
	<path id="_12" class="st0" d="M-1783.2-270.6h292.3c36.7,0,66.4,29.7,66.4,66.4V88.2c0,36.7-29.7,66.4-66.4,66.4h-292.3
		c-36.7,0-66.4-29.7-66.4-66.4v-292.3C-1849.6-240.9-1819.9-270.6-1783.2-270.6z"/>
	<path id="_23" class="st1" d="M-1800.9-151.9h0.2c19.8-0.4,37.4-0.6,52.8-0.6c29.6,0,52.5,8.3,68.2,25.2
		c15.7,16.8,23.4,38.9,23.4,65.9c0.2,13.2-1.9,26.3-6.2,38.7c-3.3,10.2-8.6,19.6-15.6,27.7c-6.4,7.1-14.1,13.1-22.6,17.5l0,0
		c-8.2,4.3-16.9,7.5-25.9,9.6h0c-8.7,1.7-17.5,2.5-26.3,2.5c-17.2,0-33.2-0.2-47.9-0.6c-1.3,0-2.4-0.6-3.1-1.7
		c-0.6-0.9-0.9-2-0.8-3.1v-176.7c0-1,0.3-2.1,0.9-2.9c0.7-0.9,1.6-1.4,2.7-1.6L-1800.9-151.9z M-1709.5-107.6
		c-9-10-21.7-15.2-38.4-15.2c-8.9,0-15.1,0.1-18.6,0.4V4.7c5.1,0.3,10.2,0.4,15.3,0.4c17.6,0,31.2-5.2,40.9-15.5
		c9.7-10.4,14.8-26.9,14.8-50.1C-1695.5-82.2-1700.3-97.7-1709.5-107.6L-1709.5-107.6z"/>
	<path id="_24" class="st2" d="M-1532.4,30.4l0-0.1c-10.1-42.1-16.8-70.9-20.2-86.3c-0.6,2.6-1.4,5.4-2.2,8.5
		c-2,7.9-5.3,19.8-9.9,35.8c-4.4,15.7-8.2,29.8-11.5,42c-0.3,1.1-0.9,2.1-1.8,2.9c-0.9,0.7-2.1,1.1-3.2,1.1h-29.2
		c-1.2,0-2.4-0.3-3.4-0.9c-1-0.7-1.7-1.6-2.1-2.8l0-0.1l-35.2-129.4V-99c-0.4-1.3-0.1-2.7,0.6-3.8c0.9-1,2.2-1.6,3.6-1.5h30
		c1,0,2.1,0.3,2.9,1c0.8,0.6,1.4,1.4,1.7,2.4l0.1,0.2l0,0.2c9.2,37.4,16,67.2,20.4,89.3c3.5-14.5,10.9-44.2,22.3-89l0-0.1l0-0.1
		c0.3-1,0.9-1.9,1.7-2.6c0.8-0.7,1.9-1.1,3-1.1h28.3c1.1,0,2.2,0.4,3,1.2c0.7,0.7,1.1,1.6,1.3,2.6c10.6,43.3,17.6,73.1,21.1,89.5
		c5-23.9,12.1-53.7,21.3-89.5c0.2-1.1,0.7-2.1,1.6-2.8c0.9-0.7,2-1,3.1-1h26.9c1.2-0.1,2.3,0.4,3.1,1.3c0.7,0.9,1,2.1,0.8,3.3l0,0.2
		l-38.6,130.1l-0.1,0.2c-0.9,2.1-2.9,3.4-5.1,3.5h-29.4c-1.1,0-2.2-0.4-3.1-1.1c-0.8-0.7-1.5-1.6-1.8-2.7L-1532.4,30.4z"/>
</g>
</svg>
