<svg width="164" height="36" viewBox="0 0 164 36" fill="none" xmlns="http://www.w3.org/2000/svg">
<path d="M7.72063 2.88574L6.08335 4.90577L7.64786 9.8116L10.9224 7.25046L7.72063 2.88574Z" fill="url(#paint0_linear)"/>
<path d="M24.9666 7.25046L28.1684 2.88574L29.7693 4.90577L28.2412 9.8116L24.9666 7.25046Z" fill="url(#paint1_linear)"/>
<path d="M15.471 21.3908L16.0895 23.6273L17.9451 25.0341L19.7643 23.6273L20.4192 21.3908L17.9451 22.4008L15.471 21.3908Z" fill="url(#paint2_linear)"/>
<path d="M9.90435 13.1302L14.1249 13.8156L15.7986 16.0881L14.3796 19.9839L14.234 17.9999L10.5229 15.8717L9.90435 13.1302Z" fill="url(#paint3_linear)"/>
<path d="M20.0916 16.0881L21.5105 19.9839L21.6197 17.9999L25.3309 15.8717L25.9858 13.1302L21.7652 13.8156L20.0916 16.0881Z" fill="url(#paint4_linear)"/>
<path fill-rule="evenodd" clip-rule="evenodd" d="M35.846 1.33466L34.9001 3.17434L31.1161 10.497L31.0904 10.547L31.1159 10.5331H51.782L43.2682 27.487H24.4577L24.3487 27.523L23.5482 27.8477L21.6563 28.6413L17.8723 36L14.0884 28.6413L12.1964 27.8477L11.396 27.523V25.6834L5.06519 17.4589L4.70135 16.99L4.8105 16.4128L5.64733 12.2645L0.953796 3.17434L0.0078125 1.33466H6.55693L6.88438 0.901804L7.61206 0L8.63082 0.61322L9.86787 1.33466H25.986L27.223 0.61322L28.2418 0L28.9695 0.901804L29.2969 1.33466H35.846ZM24.4942 23.3026L29.7335 16.521L29.1514 13.3467L28.6056 10.7134L30.4612 4.76152L27.9507 1.58717L22.2748 5.01403L21.0378 4.9058L19.1822 11.1824L20.2373 4.83367L17.9451 4.65331L15.6529 4.83367L16.7444 11.1824L14.8889 4.9058L13.6518 5.01403L7.9759 1.58717L5.46541 4.76152L7.28461 10.6773L6.59331 14.1042L6.12032 16.521L11.3596 23.3026L12.4875 24.7816L12.5239 24.8176L13.1424 22.7615L12.7422 25.2144V25.9359L13.106 26.6212L17.9451 28.6413L22.2748 26.8377L22.7842 26.6212L23.148 25.9359V25.1423L22.7478 22.7615L23.3299 24.7816V24.8176L23.3663 24.7816L24.4942 23.3026ZM29.4423 23.1944L33.6992 14.7535H44.3597L40.0664 23.1944H29.4423Z" fill="url(#paint5_linear)"/>
<path d="M51.6734 23.1944L55.9303 14.7535H71.9029L74.0496 10.5331H52.7285L44.2147 27.4148H65.4993L67.646 23.1944H51.6734Z" fill="url(#paint6_linear)"/>
<path d="M96.2803 10.5331L94.1336 14.7535H72.849L74.9957 10.5331H96.2803Z" fill="url(#paint7_linear)"/>
<path d="M69.6468 21.1022H90.9678L93.0781 16.8818H71.7935L69.6468 21.1022Z" fill="url(#paint8_linear)"/>
<path d="M66.4813 27.4148L68.5916 23.1944H89.8762L87.7659 27.4148H66.4813Z" fill="url(#paint9_linear)"/>
<path d="M96.1705 23.1944L102.538 10.5331H97.2256L88.7118 27.4148H109.996L112.143 23.1944H96.1705Z" fill="url(#paint10_linear)"/>
<path fill-rule="evenodd" clip-rule="evenodd" d="M110.942 27.4148L119.456 10.5331H140.741L132.227 27.4148H110.942ZM118.401 23.1944H129.061L133.318 14.7535H122.658L118.401 23.1944Z" fill="url(#paint11_linear)"/>
<path d="M141.723 10.5331L139.577 14.7535H147.581L141.177 27.4148H146.526L152.893 14.7535H160.898L163.008 10.5331H141.723Z" fill="url(#paint12_linear)"/>
<path d="M88.6756 30.8777H90.3492L89.949 31.7074H87.4385L88.6756 29.2184H92.0229L92.4231 28.3888H88.239L86.1651 32.5371H90.3492L91.5863 30.0481H89.0758L88.6756 30.8777Z" fill="url(#paint13_linear)"/>
<path d="M95.1517 28.1722L95.3336 32.5369H94.3876L94.2785 29.9397L91.5861 32.5369H90.6401L95.1517 28.1722Z" fill="url(#paint14_linear)"/>
<path d="M96.498 32.5371L98.1353 29.2184H98.9721L97.3348 32.5371H98.1717L99.8089 29.2184H100.646L99.0085 32.5371H99.8453L101.883 28.3888H97.6987L95.6612 32.5371H96.498Z" fill="url(#paint15_linear)"/>
<path d="M101.228 32.5371H100.391L102.429 28.3888H103.265L101.228 32.5371Z" fill="url(#paint16_linear)"/>
<path d="M102.647 32.5731L103.993 29.8316L105.703 33.1502L108.032 28.4248H107.195L105.849 31.1662L104.139 27.8476L101.81 32.5731H102.647Z" fill="url(#paint17_linear)"/>
<path d="M110.724 30.8777H109.051L109.451 30.0481H111.961L110.724 32.5371H106.54L108.578 28.3888H112.762L112.361 29.2184H109.014L107.777 31.7074H110.288L110.724 30.8777Z" fill="url(#paint18_linear)"/>
<path fill-rule="evenodd" clip-rule="evenodd" d="M118.62 28.3888H114.436L112.398 32.5371H116.582L118.469 28.6956L119.493 30.6613L118.547 32.5731H119.383L120.329 30.6613L123.713 28.4248H122.512L120.293 29.9038L119.529 28.4248H118.602L118.62 28.3888ZM113.672 31.7074L114.072 30.8777H116.582L116.182 31.7074H113.672ZM116.983 30.0481H114.472L114.872 29.2184H117.383L116.983 30.0481Z" fill="url(#paint19_linear)"/>
<path fill-rule="evenodd" clip-rule="evenodd" d="M128.953 28.3888H124.769L122.731 32.5371H124.332L124.769 33.3667H125.969L125.533 32.5371H126.915L128.953 28.3888ZM123.968 31.7074L125.205 29.2184H127.716L126.479 31.7074H123.968Z" fill="url(#paint20_linear)"/>
<path d="M129.535 28.3888H130.371L128.734 31.7074H131.245L132.882 28.3888H133.719L131.681 32.5371H127.497L129.535 28.3888Z" fill="url(#paint21_linear)"/>
<path d="M136.666 32.5369L136.448 28.1722L132.009 32.5369H132.955L135.611 29.9397L135.72 32.5369H136.666Z" fill="url(#paint22_linear)"/>
<path fill-rule="evenodd" clip-rule="evenodd" d="M138.995 30.1202L137.794 32.5371H136.958L138.995 28.3888H143.179L141.979 30.8777H140.596L141.469 32.5371H140.269L138.995 30.1202ZM139.432 29.2184L139.031 30.0481H141.542L141.942 29.2184H139.432Z" fill="url(#paint23_linear)"/>
<path fill-rule="evenodd" clip-rule="evenodd" d="M147.945 28.3888H143.761L141.724 32.5371H145.908L147.945 28.3888ZM142.961 31.7074L144.161 29.2184H146.672L145.471 31.7074H142.961Z" fill="url(#paint24_linear)"/>
<path d="M148.637 29.8316L147.29 32.5731H146.454L148.746 27.8476L150.492 31.1662L151.838 28.4248H152.675L150.383 33.1502L148.637 29.8316Z" fill="url(#paint25_linear)"/>
<path d="M151.22 32.5371H152.057L154.058 28.3888H153.221L151.22 32.5371Z" fill="url(#paint26_linear)"/>
<defs>
<linearGradient id="paint0_linear" x1="81.592" y1="36.0057" x2="81.592" y2="0.0141759" gradientUnits="userSpaceOnUse">
<stop stop-color="#F4E600"/>
<stop offset="1" stop-color="#FCC00D"/>
</linearGradient>
<linearGradient id="paint1_linear" x1="81.592" y1="36.0057" x2="81.592" y2="0.0141759" gradientUnits="userSpaceOnUse">
<stop stop-color="#F4E600"/>
<stop offset="1" stop-color="#FCC00D"/>
</linearGradient>
<linearGradient id="paint2_linear" x1="81.592" y1="36.0057" x2="81.592" y2="0.0141759" gradientUnits="userSpaceOnUse">
<stop stop-color="#F4E600"/>
<stop offset="1" stop-color="#FCC00D"/>
</linearGradient>
<linearGradient id="paint3_linear" x1="81.592" y1="36.0057" x2="81.592" y2="0.0141759" gradientUnits="userSpaceOnUse">
<stop stop-color="#F4E600"/>
<stop offset="1" stop-color="#FCC00D"/>
</linearGradient>
<linearGradient id="paint4_linear" x1="81.592" y1="36.0057" x2="81.592" y2="0.0141759" gradientUnits="userSpaceOnUse">
<stop stop-color="#F4E600"/>
<stop offset="1" stop-color="#FCC00D"/>
</linearGradient>
<linearGradient id="paint5_linear" x1="81.592" y1="36.0057" x2="81.592" y2="0.0141759" gradientUnits="userSpaceOnUse">
<stop stop-color="#F4E600"/>
<stop offset="1" stop-color="#FCC00D"/>
</linearGradient>
<linearGradient id="paint6_linear" x1="81.592" y1="36.0057" x2="81.592" y2="0.0141759" gradientUnits="userSpaceOnUse">
<stop stop-color="#F4E600"/>
<stop offset="1" stop-color="#FCC00D"/>
</linearGradient>
<linearGradient id="paint7_linear" x1="81.592" y1="36.0057" x2="81.592" y2="0.0141759" gradientUnits="userSpaceOnUse">
<stop stop-color="#F4E600"/>
<stop offset="1" stop-color="#FCC00D"/>
</linearGradient>
<linearGradient id="paint8_linear" x1="81.592" y1="36.0057" x2="81.592" y2="0.0141759" gradientUnits="userSpaceOnUse">
<stop stop-color="#F4E600"/>
<stop offset="1" stop-color="#FCC00D"/>
</linearGradient>
<linearGradient id="paint9_linear" x1="81.592" y1="36.0057" x2="81.592" y2="0.0141759" gradientUnits="userSpaceOnUse">
<stop stop-color="#F4E600"/>
<stop offset="1" stop-color="#FCC00D"/>
</linearGradient>
<linearGradient id="paint10_linear" x1="81.592" y1="36.0057" x2="81.592" y2="0.0141759" gradientUnits="userSpaceOnUse">
<stop stop-color="#F4E600"/>
<stop offset="1" stop-color="#FCC00D"/>
</linearGradient>
<linearGradient id="paint11_linear" x1="81.592" y1="36.0057" x2="81.592" y2="0.0141759" gradientUnits="userSpaceOnUse">
<stop stop-color="#F4E600"/>
<stop offset="1" stop-color="#FCC00D"/>
</linearGradient>
<linearGradient id="paint12_linear" x1="81.592" y1="36.0057" x2="81.592" y2="0.0141759" gradientUnits="userSpaceOnUse">
<stop stop-color="#F4E600"/>
<stop offset="1" stop-color="#FCC00D"/>
</linearGradient>
<linearGradient id="paint13_linear" x1="81.592" y1="36.0057" x2="81.592" y2="0.0141759" gradientUnits="userSpaceOnUse">
<stop stop-color="#F4E600"/>
<stop offset="1" stop-color="#FCC00D"/>
</linearGradient>
<linearGradient id="paint14_linear" x1="81.592" y1="36.0057" x2="81.592" y2="0.0141759" gradientUnits="userSpaceOnUse">
<stop stop-color="#F4E600"/>
<stop offset="1" stop-color="#FCC00D"/>
</linearGradient>
<linearGradient id="paint15_linear" x1="81.592" y1="36.0057" x2="81.592" y2="0.0141759" gradientUnits="userSpaceOnUse">
<stop stop-color="#F4E600"/>
<stop offset="1" stop-color="#FCC00D"/>
</linearGradient>
<linearGradient id="paint16_linear" x1="81.592" y1="36.0057" x2="81.592" y2="0.0141759" gradientUnits="userSpaceOnUse">
<stop stop-color="#F4E600"/>
<stop offset="1" stop-color="#FCC00D"/>
</linearGradient>
<linearGradient id="paint17_linear" x1="81.592" y1="36.0057" x2="81.592" y2="0.0141759" gradientUnits="userSpaceOnUse">
<stop stop-color="#F4E600"/>
<stop offset="1" stop-color="#FCC00D"/>
</linearGradient>
<linearGradient id="paint18_linear" x1="81.592" y1="36.0057" x2="81.592" y2="0.0141759" gradientUnits="userSpaceOnUse">
<stop stop-color="#F4E600"/>
<stop offset="1" stop-color="#FCC00D"/>
</linearGradient>
<linearGradient id="paint19_linear" x1="81.592" y1="36.0057" x2="81.592" y2="0.0141759" gradientUnits="userSpaceOnUse">
<stop stop-color="#F4E600"/>
<stop offset="1" stop-color="#FCC00D"/>
</linearGradient>
<linearGradient id="paint20_linear" x1="81.592" y1="36.0057" x2="81.592" y2="0.0141759" gradientUnits="userSpaceOnUse">
<stop stop-color="#F4E600"/>
<stop offset="1" stop-color="#FCC00D"/>
</linearGradient>
<linearGradient id="paint21_linear" x1="81.592" y1="36.0057" x2="81.592" y2="0.0141759" gradientUnits="userSpaceOnUse">
<stop stop-color="#F4E600"/>
<stop offset="1" stop-color="#FCC00D"/>
</linearGradient>
<linearGradient id="paint22_linear" x1="81.592" y1="36.0057" x2="81.592" y2="0.0141759" gradientUnits="userSpaceOnUse">
<stop stop-color="#F4E600"/>
<stop offset="1" stop-color="#FCC00D"/>
</linearGradient>
<linearGradient id="paint23_linear" x1="81.592" y1="36.0057" x2="81.592" y2="0.0141759" gradientUnits="userSpaceOnUse">
<stop stop-color="#F4E600"/>
<stop offset="1" stop-color="#FCC00D"/>
</linearGradient>
<linearGradient id="paint24_linear" x1="81.592" y1="36.0057" x2="81.592" y2="0.0141759" gradientUnits="userSpaceOnUse">
<stop stop-color="#F4E600"/>
<stop offset="1" stop-color="#FCC00D"/>
</linearGradient>
<linearGradient id="paint25_linear" x1="81.592" y1="36.0057" x2="81.592" y2="0.0141759" gradientUnits="userSpaceOnUse">
<stop stop-color="#F4E600"/>
<stop offset="1" stop-color="#FCC00D"/>
</linearGradient>
<linearGradient id="paint26_linear" x1="81.592" y1="36.0057" x2="81.592" y2="0.0141759" gradientUnits="userSpaceOnUse">
<stop stop-color="#F4E600"/>
<stop offset="1" stop-color="#FCC00D"/>
</linearGradient>
</defs>
</svg>
