<svg width="169" height="169" viewBox="0 0 169 169" fill="none" xmlns="http://www.w3.org/2000/svg">
<g id="patter-yellow-dark">
<g id="Mask Group">
<mask id="mask0" mask-type="alpha" maskUnits="userSpaceOnUse" x="0" y="0" width="169" height="169">
<path id="Rectangle 723" d="M0.493652 0.281738H168.694V168.482H0.493652V0.281738Z" fill="#C4C4C4"/>
</mask>
<g mask="url(#mask0)">
<path id="Vector" d="M91.3937 7.58173L84.0859 0.273926H87.4859L91.3937 4.18172L95.3015 0.273926H98.7015L91.3937 7.58173Z" fill="black"/>
<path id="Vector_2" d="M103.793 147.997L111.493 155.697L98.71 168.48H95.31L108.093 155.697L103.793 151.397L87.0934 168.097L87.476 168.48H84.076L83.6934 168.097L103.793 147.997Z" fill="black"/>
<path id="Vector_3" d="M97.7936 37.1818L105.494 29.4818L76.7402 0.267029H73.387L102.094 29.4818L97.7936 33.7818L64.2789 0.267029H60.8789L97.7936 37.1818Z" fill="black"/>
<path id="Vector_4" d="M60.4937 168.097L68.0937 159.697L76.7448 168.487H73.3916L68.1936 163.197L63.7937 167.997L64.2749 168.478H60.8749L60.4937 168.097Z" fill="black"/>
<path id="Vector_5" d="M43.6934 19.1817L57.3934 5.48172L52.1918 0.28009H47.1951L43.6934 3.78172L40.1918 0.28009H36.8918L43.7934 7.18172L49.7934 1.18172L54.0934 5.48172L43.7934 15.7817L28.3018 0.290038H24.8018L43.6934 19.1817Z" fill="black"/>
<g id="Vector_6">
<path d="M23.9937 167.697L31.6936 159.997L40.1674 168.471H36.8674L31.7937 163.397L27.4937 167.697L28.27 168.473H24.77L23.9937 167.697Z" fill="black"/>
<path d="M47.221 168.47L49.6936 165.997L52.1663 168.47H47.221Z" fill="black"/>
</g>
<path id="Vector_7" d="M115.594 31.1817L95.9937 11.4817L107.263 0.269592H110.675L99.3936 11.4817L115.594 27.7817L126.094 17.4817L121.494 13.1817L115.694 19.2817L108.194 11.4817L119.306 0.276069H122.699L111.494 11.4817L115.594 15.7817L121.394 9.78172L129.594 17.4817L115.594 31.1817Z" fill="black"/>
<path id="Vector_8" d="M115.794 159.997L123.494 167.697L122.746 168.444H119.353L120.094 167.697L115.794 163.397L110.688 168.471H107.276L115.794 159.997Z" fill="black"/>
<path id="Vector_9" d="M7.29389 88.3817L14.9939 96.0817L0.492676 110.583V107.083L11.5939 95.9817L7.29389 91.6817L0.49889 98.4767V95.1767L7.29389 88.3817Z" fill="black"/>
<g id="Vector_10">
<path d="M3.39343 83.5818L0.501465 86.4738V80.5934L3.39343 83.5818Z" fill="black"/>
<path d="M3.49343 71.4818L0.513241 74.3643V68.6926L3.49343 71.4818Z" fill="black"/>
</g>
<g id="Vector_11">
<path d="M1.69387 141.982L9.39387 149.682L0.504538 158.571V155.171L5.99388 149.682L1.69387 145.382L0.504517 146.611V143.211L1.69387 141.982Z" fill="black"/>
<path d="M13.6939 145.182L1.69387 133.382L0.505234 134.57V131.17L1.69387 129.982L13.6939 141.782L17.9939 137.682L1.69387 121.382L0.499512 122.576V119.176L1.69387 117.982L21.3939 137.682L13.6939 145.182Z" fill="black"/>
</g>
<path id="Vector_12" d="M9.29375 17.5817L1.69374 25.6817L0.495117 24.5171V21.0167L1.69374 22.1817L6.09375 17.4817L0.506166 11.7897V8.54486L9.29375 17.5817Z" fill="black"/>
<path id="Vector_13" d="M66.0938 53.5817L85.7937 73.2817L93.4937 65.5817L73.7937 45.8817L66.0938 53.5817ZM85.7937 69.8817L69.4937 53.5817L73.7937 49.2817L90.0938 65.5817L85.7937 69.8817Z" fill="black"/>
<path id="Vector_14" d="M97.7937 45.8817L73.7937 21.8817L48.0938 47.5817L55.7937 55.2817L73.7937 37.2817L115.894 79.3817L141.594 53.6817L133.894 45.9817L115.894 63.9817L105.494 53.5817L110.194 48.8817L116.194 54.8817L123.894 47.1817L110.194 33.4817L97.7937 45.8817ZM116.194 51.4817L110.194 45.4817L102.094 53.5817L115.794 67.2817L133.794 49.2817L138.094 53.5817L115.794 75.8817L73.6937 33.7817L55.6937 51.7817L51.3937 47.4817L73.6937 25.1817L97.6938 49.1817L110.094 36.7817L120.394 47.0817L116.194 51.4817Z" fill="black"/>
<path id="Vector_15" d="M55.7934 63.8818L37.3934 45.4818L29.6934 53.1817L55.7934 79.2818L69.4934 65.5818L61.7934 57.8818L55.7934 63.8818ZM55.7934 75.8818L33.0934 53.1817L37.3934 48.8818L55.7934 67.2818L61.7934 61.2818L66.0934 65.5818L55.7934 75.8818Z" fill="black"/>
<path id="Vector_16" d="M85.7937 97.2817L93.4937 89.5817L73.7937 69.8817L48.0938 95.5817L55.7937 103.282L73.7937 85.2817L85.7937 97.2817ZM51.4937 95.5817L73.7937 73.2817L90.0938 89.5817L85.7937 93.8817L73.7937 81.8817L55.7937 99.8817L51.4937 95.5817Z" fill="black"/>
<path id="Vector_17" d="M85.7937 105.882L73.7937 93.8817L66.0938 101.582L85.7937 121.282L117.494 89.5817L109.794 81.8817L85.7937 105.882ZM85.7937 117.982L69.4937 101.582L73.7937 97.2817L85.7937 109.282L109.794 85.2817L114.094 89.5817L85.7937 117.982Z" fill="black"/>
<path id="Vector_18" d="M54.0938 113.582L67.7937 127.282L75.4937 119.582L61.7937 105.882L54.0938 113.582ZM67.7937 123.982L57.4937 113.582L61.7937 109.282L72.0938 119.582L67.7937 123.982Z" fill="black"/>
<path id="Vector_19" d="M127.816 75.8825L120.108 83.5898L145.847 109.328L153.554 101.621L127.816 75.8825Z" fill="black"/>
<path id="Vector_20" d="M109.794 121.382L121.794 109.382L126.094 113.682L114.094 125.682L121.794 133.382L133.794 121.382L145.794 133.382L153.494 125.682L121.794 93.9817L102.094 113.682L109.794 121.382ZM150.194 125.682L145.894 129.982L133.894 117.982L121.894 129.982L117.594 125.682L129.594 113.682L121.894 105.982L109.894 117.982L105.594 113.682L121.894 97.3817L150.194 125.682Z" fill="black"/>
<path id="Vector_21" d="M121.893 141.982L97.8933 117.982L90.1934 125.682L121.893 157.382L141.593 137.682L133.893 129.982L121.893 141.982ZM121.893 153.982L93.4933 125.682L97.7933 121.382L121.793 145.382L133.793 133.382L138.093 137.682L121.893 153.982Z" fill="black"/>
<path id="Vector_22" d="M37.7937 145.382L57.4937 125.682L49.7937 117.982L30.0938 137.682L37.7937 145.382ZM54.0938 125.682L37.7937 141.982L33.4937 137.682L49.7937 121.382L54.0938 125.682Z" fill="black"/>
<path id="Vector_23" d="M90.0938 77.5817L97.7937 85.2817L105.494 77.5817L97.7937 69.8817L90.0938 77.5817ZM97.7937 81.8817L93.4937 77.5817L97.7937 73.2817L102.094 77.5817L97.7937 81.8817Z" fill="black"/>
<path id="Vector_24" d="M72.0938 131.682L79.7937 139.382L87.4937 131.682L79.7937 123.982L72.0938 131.682ZM79.7937 135.982L75.4937 131.682L79.7937 127.382L84.0938 131.682L79.7937 135.982Z" fill="black"/>
<path id="Vector_25" d="M79.8123 127.291L75.499 131.604L79.8123 135.917L84.1256 131.604L79.8123 127.291Z" fill="#F1E50D"/>
<path id="Vector_26" d="M61.7937 129.982L54.0938 137.682L79.7937 163.382L99.4937 143.682L91.7937 135.982L79.7937 147.982L61.7937 129.982ZM96.0938 143.682L79.7937 159.982L57.4937 137.682L61.7937 133.382L79.7937 151.382L91.7937 139.382L96.0938 143.682Z" fill="black"/>
<path id="Vector_27" d="M49.7937 157.382L55.7937 163.382L63.4937 155.682L49.7937 141.982L36.0938 155.682L43.7937 163.382L49.7937 157.382ZM49.7937 145.382L60.0938 155.682L55.7937 159.982L49.7937 153.982L43.7937 159.982L39.4937 155.682L49.7937 145.382Z" fill="black"/>
<path id="Vector_28" d="M120.094 35.4818L127.894 43.2818L133.594 37.2818L145.894 49.4818L153.594 41.5818L133.494 22.4818L120.094 35.4818Z" fill="black"/>
<path id="Vector_29" d="M54.0938 17.4817L61.7937 25.1817L69.4937 17.4817L61.7937 9.78174L54.0938 17.4817ZM61.7937 21.7817L57.4937 17.4817L61.7937 13.1817L66.0938 17.4817L61.7937 21.7817Z" fill="black"/>
<path id="Vector_30" d="M21.3936 29.9817L1.69358 49.6817L0.498047 48.4862V45.0808L1.69358 46.2817L17.9936 29.8817L13.6936 25.5817L1.69358 37.5817L0.501101 36.3893V33.0893L1.69358 34.2817L13.6936 22.2817L21.3936 29.9817Z" fill="black"/>
<path id="Vector_31" fill-rule="evenodd" clip-rule="evenodd" d="M7.69343 67.2817L33.3934 41.5817L25.6934 33.8817L0.492676 59.0825V60.081L7.69343 67.2817ZM3.39342 59.5817L7.69343 63.8817L29.9934 41.5817L25.6934 37.2817L3.39342 59.5817Z" fill="black"/>
<path id="Vector_32" d="M5.99365 77.5817L13.6936 85.2817L33.3936 65.5817L25.6936 57.8817L5.99365 77.5817ZM13.6936 81.8817L9.39365 77.5817L25.6936 61.2817L29.9937 65.5817L13.6936 81.8817Z" fill="black"/>
<path id="Vector_33" d="M37.7937 85.2817L43.7937 91.2817L51.4937 83.5817L37.7937 69.8817L18.0938 89.5817L25.7937 97.2817L37.7937 85.2817ZM37.7937 73.2817L48.0938 83.5817L43.7937 87.8817L37.7937 81.8817L25.7937 93.8817L21.4937 89.5817L37.7937 73.2817Z" fill="black"/>
<path id="Vector_34" d="M25.2937 132.982L32.9937 125.282L21.3936 113.682L27.3936 107.682L19.6936 99.9817L5.99365 113.682L25.2937 132.982ZM23.9937 107.582L17.9937 113.582L29.5937 125.182L25.2937 129.482L9.39365 113.582L19.6936 103.282L23.9937 107.582Z" fill="black"/>
<path id="Vector_35" d="M37.7937 121.382L51.4937 107.582L37.7937 93.8817L29.9937 101.582L36.0937 107.582L29.9937 113.582L37.7937 121.382Z" fill="black"/>
<path id="Vector_36" d="M33.3936 149.682L25.6936 141.982L12.3936 155.282L20.0936 162.982L33.3936 149.682ZM25.6936 145.382L29.9936 149.682L20.0936 159.582L15.7936 155.282L25.6936 145.382Z" fill="black"/>
<path id="Vector_37" d="M25.6611 145.361L15.7617 155.261L20.075 159.574L29.9744 149.675L25.6611 145.361Z" fill="#F1E50D"/>
<g id="Vector_38">
<path d="M139.794 19.1817L125.994 5.48172L131.033 0.268555H134.333L129.294 5.48172L139.694 15.7817L155.485 0.278934H158.987L139.794 19.1817Z" fill="black"/>
<path d="M146.294 1.18171L145.4 0.287591H147.188L146.294 1.18171Z" fill="black"/>
</g>
<path id="Vector_39" d="M151.894 160.397L159.594 167.897L158.989 168.493H155.487L156.094 167.897L155.894 167.697L151.894 163.797L147.994 167.697L147.207 168.484H145.381L144.594 167.697L134.294 157.397L129.594 161.797L135.094 167.697L134.334 168.483H131.034L131.794 167.697L126.194 161.597L134.294 153.997L146.294 165.997L151.894 160.397Z" fill="black"/>
<path id="Vector_40" d="M13.6938 13.1817L21.3938 5.48168L16.1777 0.265503L12.8173 0.305149L17.9938 5.48168L13.6938 9.78168L4.20468 0.292518H0.804688L13.6938 13.1817Z" fill="black"/>
<path id="Vector_41" d="M7.29354 162.997L2.99353 167.297L4.17044 168.474H0.770447L0.5 168.204V166.391L7.29354 159.597L16.1814 168.485H12.7814L7.29354 162.997Z" fill="black"/>
<path id="Vector_42" d="M157.893 121.282L150.193 113.582L168.7 95.0754V98.4754L153.593 113.582L157.893 117.882L168.692 107.083V110.483L157.893 121.282Z" fill="black"/>
<path id="Vector_43" d="M132.193 71.5817L139.893 79.2817L165.593 53.5817L157.893 45.8817L132.193 71.5817ZM139.893 75.8817L135.593 71.5817L157.893 49.2817L162.193 53.5817L139.893 75.8817Z" fill="black"/>
<path id="Vector_44" fill-rule="evenodd" clip-rule="evenodd" d="M144.193 83.5818L157.893 97.2818L168.696 86.4788V80.5881L165.593 77.3818L168.723 74.3543L168.677 68.659L163.893 64.1818L144.193 83.5818ZM162.193 77.3818L168.193 71.5818L163.893 67.5818L147.593 83.5818L157.893 93.8818L168.193 83.5818L162.193 77.3818Z" fill="black"/>
<g id="Vector_45">
<path d="M151.893 151.382L145.893 157.382L138.193 149.682L168.698 119.177V122.577L141.593 149.682L145.893 153.982L151.893 147.982L163.893 159.982L168.683 155.192V158.592L163.893 163.382L151.893 151.382Z" fill="black"/>
<path d="M159.593 143.682L163.893 148.182L168.687 143.228V146.628L163.893 151.582L156.193 143.682L168.686 131.189V134.589L159.593 143.682Z" fill="black"/>
</g>
<path id="Vector_46" d="M155.794 11.9817L163.394 3.08173L168.701 8.53907V11.784L163.594 6.58173L159.194 11.7817L168.685 21.0063V24.5067L155.794 11.9817Z" fill="black"/>
<path id="Vector_47" d="M169.894 1.1817L181.894 13.1817L189.594 5.4817L175.494 -8.61829L169.894 -3.0183L167.794 -0.918289L169.894 1.1817ZM175.494 -5.21829L186.194 5.4817L181.894 9.78171L171.194 -0.918289L175.494 -5.21829Z" fill="black"/>
<path id="Vector_48" d="M43.7937 43.2817L57.4937 29.5817L49.7937 21.8817L43.7937 27.8817L25.7937 9.88171L18.0938 17.5817L43.7937 43.2817ZM43.7937 31.1817L49.7937 25.1817L54.0938 29.4817L43.7937 39.7817L21.4937 17.4817L25.7937 13.1817L43.7937 31.1817Z" fill="black"/>
<path id="Vector_49" d="M144.193 23.9817L151.893 16.2817L168.715 33.1031V36.4031L151.893 19.5817L147.593 23.8817L168.702 45.0853V48.4906L144.193 23.9817Z" fill="black"/>
<path id="Vector_50" d="M168.193 59.5817L168.69 59.0854V60.0779L168.193 59.5817Z" fill="black"/>
<path id="Vector_51" d="M61.807 13.1684L57.4937 17.4818L61.807 21.7951L66.1203 17.4818L61.807 13.1684Z" fill="#F1E50D"/>
<path id="Vector_52" d="M167.794 167.282L168.684 166.392V168.171L167.794 167.282Z" fill="black"/>
</g>
</g>
</g>
</svg>
