<svg width="169" height="169" viewBox="0 0 169 169" fill="none" xmlns="http://www.w3.org/2000/svg">
<g id="pattern-dark">
<g id="Mask Group">
<mask id="mask0" mask-type="alpha" maskUnits="userSpaceOnUse" x="0" y="0" width="169" height="169">
<path id="Rectangle 723" d="M0.293457 0.281738H168.493V168.482H0.293457V0.281738Z" fill="#C4C4C4"/>
</mask>
<g mask="url(#mask0)">
<path id="Vector" d="M91.1933 7.58173L83.8855 0.273926H87.2855L91.1933 4.18172L95.1011 0.273926H98.5011L91.1933 7.58173Z" fill="black"/>
<path id="Vector_2" d="M103.593 147.997L111.293 155.697L98.51 168.48H95.11L107.893 155.697L103.593 151.397L86.8934 168.097L87.2761 168.48H83.8761L83.4934 168.097L103.593 147.997Z" fill="black"/>
<path id="Vector_3" d="M97.5934 37.1818L105.293 29.4818L76.54 0.267029H73.1868L101.893 29.4818L97.5934 33.7818L64.0787 0.267029H60.6787L97.5934 37.1818Z" fill="black"/>
<path id="Vector_4" d="M60.2935 168.097L67.8935 159.697L76.5446 168.487H73.1914L67.9935 163.197L63.5935 167.997L64.0748 168.478H60.6747L60.2935 168.097Z" fill="black"/>
<path id="Vector_5" d="M43.4935 19.1817L57.1935 5.48172L51.9919 0.28009H46.9951L43.4935 3.78172L39.9919 0.28009H36.6919L43.5935 7.18172L49.5935 1.18172L53.8935 5.48172L43.5935 15.7817L28.1018 0.290038H24.6018L43.4935 19.1817Z" fill="black"/>
<g id="Vector_6">
<path d="M23.7935 167.697L31.4935 159.997L39.9672 168.471H36.6672L31.5935 163.397L27.2935 167.697L28.0698 168.473H24.5698L23.7935 167.697Z" fill="black"/>
<path d="M47.0209 168.47L49.4935 165.997L51.9661 168.47H47.0209Z" fill="black"/>
</g>
<path id="Vector_7" d="M115.393 31.1817L95.7935 11.4817L107.062 0.269592H110.474L99.1935 11.4817L115.393 27.7817L125.893 17.4817L121.293 13.1817L115.493 19.2817L107.993 11.4817L119.106 0.276069H122.499L111.293 11.4817L115.393 15.7817L121.193 9.78172L129.393 17.4817L115.393 31.1817Z" fill="black"/>
<path id="Vector_8" d="M115.593 159.997L123.293 167.697L122.546 168.444H119.153L119.893 167.697L115.593 163.397L110.488 168.471H107.076L115.593 159.997Z" fill="black"/>
<path id="Vector_9" d="M7.09345 88.3817L14.7934 96.0817L0.292236 110.583V107.083L11.3935 95.9817L7.09345 91.6817L0.29845 98.4767V95.1767L7.09345 88.3817Z" fill="black"/>
<g id="Vector_10">
<path d="M3.19348 83.5818L0.301514 86.4738V80.5934L3.19348 83.5818Z" fill="black"/>
<path d="M3.29348 71.4818L0.31329 74.3643V68.6926L3.29348 71.4818Z" fill="black"/>
</g>
<g id="Vector_11">
<path d="M1.49343 141.982L9.19343 149.682L0.304098 158.571V155.171L5.79344 149.682L1.49343 145.382L0.304077 146.611V143.211L1.49343 141.982Z" fill="black"/>
<path d="M13.4934 145.182L1.49343 133.382L0.304794 134.57V131.17L1.49343 129.982L13.4934 141.782L17.7934 137.682L1.49343 121.382L0.299072 122.576V119.176L1.49343 117.982L21.1934 137.682L13.4934 145.182Z" fill="black"/>
</g>
<path id="Vector_12" d="M9.09356 17.5817L1.49355 25.6817L0.294922 24.5171V21.0167L1.49355 22.1817L5.89356 17.4817L0.305971 11.7897V8.54486L9.09356 17.5817Z" fill="black"/>
<path id="Vector_13" d="M65.8936 53.5817L85.5936 73.2817L93.2935 65.5817L73.5936 45.8817L65.8936 53.5817ZM85.5936 69.8817L69.2935 53.5817L73.5936 49.2817L89.8936 65.5817L85.5936 69.8817Z" fill="black"/>
<path id="Vector_14" d="M97.5935 45.8817L73.5936 21.8817L47.8936 47.5817L55.5936 55.2817L73.5936 37.2817L115.694 79.3817L141.394 53.6817L133.694 45.9817L115.694 63.9817L105.294 53.5817L109.994 48.8817L115.994 54.8817L123.694 47.1817L109.994 33.4817L97.5935 45.8817ZM115.994 51.4817L109.994 45.4817L101.894 53.5817L115.594 67.2817L133.594 49.2817L137.894 53.5817L115.594 75.8817L73.4935 33.7817L55.4935 51.7817L51.1935 47.4817L73.4935 25.1817L97.4936 49.1817L109.894 36.7817L120.194 47.0817L115.994 51.4817Z" fill="black"/>
<path id="Vector_15" d="M55.5934 63.8818L37.1934 45.4818L29.4934 53.1817L55.5934 79.2818L69.2934 65.5818L61.5934 57.8818L55.5934 63.8818ZM55.5934 75.8818L32.8934 53.1817L37.1934 48.8818L55.5934 67.2818L61.5934 61.2818L65.8934 65.5818L55.5934 75.8818Z" fill="black"/>
<path id="Vector_16" d="M85.5936 97.2817L93.2935 89.5817L73.5936 69.8817L47.8936 95.5817L55.5936 103.282L73.5936 85.2817L85.5936 97.2817ZM51.2935 95.5817L73.5936 73.2817L89.8936 89.5817L85.5936 93.8817L73.5936 81.8817L55.5936 99.8817L51.2935 95.5817Z" fill="black"/>
<path id="Vector_17" d="M85.5936 105.882L73.5936 93.8817L65.8936 101.582L85.5936 121.282L117.294 89.5817L109.594 81.8817L85.5936 105.882ZM85.5936 117.982L69.2935 101.582L73.5936 97.2817L85.5936 109.282L109.594 85.2817L113.894 89.5817L85.5936 117.982Z" fill="black"/>
<path id="Vector_18" d="M53.8936 113.582L67.5936 127.282L75.2935 119.582L61.5936 105.882L53.8936 113.582ZM67.5936 123.982L57.2935 113.582L61.5936 109.282L71.8936 119.582L67.5936 123.982Z" fill="black"/>
<path id="Vector_19" d="M127.616 75.8825L119.908 83.5898L145.647 109.328L153.354 101.621L127.616 75.8825Z" fill="black"/>
<path id="Vector_20" d="M109.594 121.382L121.594 109.382L125.894 113.682L113.894 125.682L121.594 133.382L133.594 121.382L145.594 133.382L153.294 125.682L121.594 93.9817L101.894 113.682L109.594 121.382ZM149.994 125.682L145.694 129.982L133.694 117.982L121.694 129.982L117.394 125.682L129.394 113.682L121.694 105.982L109.694 117.982L105.394 113.682L121.694 97.3817L149.994 125.682Z" fill="black"/>
<path id="Vector_21" d="M121.693 141.982L97.6934 117.982L89.9934 125.682L121.693 157.382L141.393 137.682L133.693 129.982L121.693 141.982ZM121.693 153.982L93.2934 125.682L97.5934 121.382L121.593 145.382L133.593 133.382L137.893 137.682L121.693 153.982Z" fill="black"/>
<path id="Vector_22" d="M37.5936 145.382L57.2935 125.682L49.5936 117.982L29.8936 137.682L37.5936 145.382ZM53.8936 125.682L37.5936 141.982L33.2935 137.682L49.5936 121.382L53.8936 125.682Z" fill="black"/>
<path id="Vector_23" d="M89.8936 77.5817L97.5935 85.2817L105.294 77.5817L97.5935 69.8817L89.8936 77.5817ZM97.5935 81.8817L93.2935 77.5817L97.5935 73.2817L101.894 77.5817L97.5935 81.8817Z" fill="black"/>
<path id="Vector_24" d="M71.8936 131.682L79.5936 139.382L87.2935 131.682L79.5936 123.982L71.8936 131.682ZM79.5936 135.982L75.2935 131.682L79.5936 127.382L83.8936 131.682L79.5936 135.982Z" fill="black"/>
<path id="Vector_25" d="M79.6121 127.291L75.2988 131.604L79.6121 135.917L83.9254 131.604L79.6121 127.291Z" fill="black"/>
<path id="Vector_26" d="M61.5936 129.982L53.8936 137.682L79.5936 163.382L99.2935 143.682L91.5935 135.982L79.5936 147.982L61.5936 129.982ZM95.8936 143.682L79.5936 159.982L57.2935 137.682L61.5936 133.382L79.5936 151.382L91.5935 139.382L95.8936 143.682Z" fill="black"/>
<path id="Vector_27" d="M49.5936 157.382L55.5936 163.382L63.2935 155.682L49.5936 141.982L35.8936 155.682L43.5936 163.382L49.5936 157.382ZM49.5936 145.382L59.8936 155.682L55.5936 159.982L49.5936 153.982L43.5936 159.982L39.2935 155.682L49.5936 145.382Z" fill="black"/>
<path id="Vector_28" d="M119.894 35.4818L127.694 43.2818L133.394 37.2818L145.694 49.4818L153.394 41.5818L133.294 22.4818L119.894 35.4818Z" fill="black"/>
<path id="Vector_29" d="M53.8936 17.4817L61.5936 25.1817L69.2935 17.4817L61.5936 9.78174L53.8936 17.4817ZM61.5936 21.7817L57.2935 17.4817L61.5936 13.1817L65.8936 17.4817L61.5936 21.7817Z" fill="black"/>
<path id="Vector_30" d="M21.1934 29.9817L1.49339 49.6817L0.297852 48.4862V45.0808L1.49339 46.2817L17.7934 29.8817L13.4934 25.5817L1.49339 37.5817L0.300905 36.3893V33.0893L1.49339 34.2817L13.4934 22.2817L21.1934 29.9817Z" fill="black"/>
<path id="Vector_31" fill-rule="evenodd" clip-rule="evenodd" d="M7.49348 67.2817L33.1935 41.5817L25.4935 33.8817L0.292725 59.0825V60.081L7.49348 67.2817ZM3.19347 59.5817L7.49348 63.8817L29.7935 41.5817L25.4935 37.2817L3.19347 59.5817Z" fill="black"/>
<path id="Vector_32" d="M5.79346 77.5817L13.4935 85.2817L33.1935 65.5817L25.4935 57.8817L5.79346 77.5817ZM13.4935 81.8817L9.19345 77.5817L25.4935 61.2817L29.7935 65.5817L13.4935 81.8817Z" fill="black"/>
<path id="Vector_33" d="M37.5936 85.2817L43.5936 91.2817L51.2935 83.5817L37.5936 69.8817L17.8936 89.5817L25.5936 97.2817L37.5936 85.2817ZM37.5936 73.2817L47.8936 83.5817L43.5936 87.8817L37.5936 81.8817L25.5936 93.8817L21.2935 89.5817L37.5936 73.2817Z" fill="black"/>
<path id="Vector_34" d="M25.0935 132.982L32.7935 125.282L21.1935 113.682L27.1935 107.682L19.4935 99.9817L5.79346 113.682L25.0935 132.982ZM23.7935 107.582L17.7935 113.582L29.3935 125.182L25.0935 129.482L9.19345 113.582L19.4935 103.282L23.7935 107.582Z" fill="black"/>
<path id="Vector_35" d="M37.5935 121.382L51.2935 107.582L37.5935 93.8817L29.7935 101.582L35.8935 107.582L29.7935 113.582L37.5935 121.382Z" fill="black"/>
<path id="Vector_36" d="M33.1934 149.682L25.4934 141.982L12.1934 155.282L19.8934 162.982L33.1934 149.682ZM25.4934 145.382L29.7934 149.682L19.8934 159.582L15.5934 155.282L25.4934 145.382Z" fill="black"/>
<path id="Vector_37" d="M25.4607 145.361L15.5613 155.261L19.8746 159.574L29.774 149.675L25.4607 145.361Z" fill="black"/>
<g id="Vector_38">
<path d="M139.593 19.1817L125.793 5.48172L130.833 0.268555H134.133L129.093 5.48172L139.493 15.7817L155.285 0.278934H158.787L139.593 19.1817Z" fill="black"/>
<path d="M146.093 1.18171L145.199 0.287591H146.988L146.093 1.18171Z" fill="black"/>
</g>
<path id="Vector_39" d="M151.693 160.397L159.393 167.897L158.788 168.493H155.286L155.893 167.897L155.693 167.697L151.693 163.797L147.793 167.697L147.006 168.484H145.181L144.393 167.697L134.093 157.397L129.393 161.797L134.893 167.697L134.134 168.483H130.834L131.593 167.697L125.993 161.597L134.093 153.997L146.093 165.997L151.693 160.397Z" fill="black"/>
<path id="Vector_40" d="M13.4936 13.1817L21.1936 5.48168L15.9775 0.265503L12.6171 0.305149L17.7936 5.48168L13.4936 9.78168L4.00449 0.292518H0.604492L13.4936 13.1817Z" fill="black"/>
<path id="Vector_41" d="M7.09359 162.997L2.79358 167.297L3.97049 168.474H0.570496L0.300049 168.204V166.391L7.09359 159.597L15.9814 168.485H12.5814L7.09359 162.997Z" fill="black"/>
<path id="Vector_42" d="M157.693 121.282L149.993 113.582L168.5 95.0754V98.4754L153.393 113.582L157.693 117.882L168.492 107.083V110.483L157.693 121.282Z" fill="black"/>
<path id="Vector_43" d="M131.993 71.5817L139.693 79.2817L165.393 53.5817L157.693 45.8817L131.993 71.5817ZM139.693 75.8817L135.393 71.5817L157.693 49.2817L161.993 53.5817L139.693 75.8817Z" fill="black"/>
<path id="Vector_44" fill-rule="evenodd" clip-rule="evenodd" d="M143.993 83.5818L157.693 97.2818L168.496 86.4788V80.5881L165.393 77.3818L168.523 74.3543L168.477 68.659L163.693 64.1818L143.993 83.5818ZM161.993 77.3818L167.993 71.5818L163.693 67.5818L147.393 83.5818L157.693 93.8818L167.993 83.5818L161.993 77.3818Z" fill="black"/>
<g id="Vector_45">
<path d="M151.693 151.382L145.693 157.382L137.993 149.682L168.498 119.177V122.577L141.393 149.682L145.693 153.982L151.693 147.982L163.693 159.982L168.483 155.192V158.592L163.693 163.382L151.693 151.382Z" fill="black"/>
<path d="M159.393 143.682L163.693 148.182L168.487 143.228V146.628L163.693 151.582L155.993 143.682L168.486 131.189V134.589L159.393 143.682Z" fill="black"/>
</g>
<path id="Vector_46" d="M155.594 11.9817L163.194 3.08173L168.5 8.53907V11.784L163.394 6.58173L158.994 11.7817L168.484 21.0063V24.5067L155.594 11.9817Z" fill="black"/>
<path id="Vector_47" d="M169.694 1.1817L181.694 13.1817L189.394 5.4817L175.294 -8.61829L169.694 -3.0183L167.594 -0.918289L169.694 1.1817ZM175.294 -5.21829L185.994 5.4817L181.694 9.78171L170.994 -0.918289L175.294 -5.21829Z" fill="black"/>
<path id="Vector_48" d="M43.5936 43.2817L57.2935 29.5817L49.5936 21.8817L43.5936 27.8817L25.5936 9.88171L17.8936 17.5817L43.5936 43.2817ZM43.5936 31.1817L49.5936 25.1817L53.8936 29.4817L43.5936 39.7817L21.2935 17.4817L25.5936 13.1817L43.5936 31.1817Z" fill="black"/>
<path id="Vector_49" d="M143.993 23.9817L151.693 16.2817L168.515 33.1031V36.4031L151.693 19.5817L147.393 23.8817L168.502 45.0853V48.4906L143.993 23.9817Z" fill="black"/>
<path id="Vector_50" d="M167.993 59.5817L168.49 59.0854V60.0779L167.993 59.5817Z" fill="black"/>
<path id="Vector_51" d="M61.6068 13.1684L57.2935 17.4818L61.6068 21.7951L65.9201 17.4818L61.6068 13.1684Z" fill="black"/>
<path id="Vector_52" d="M167.594 167.282L168.483 166.392V168.171L167.594 167.282Z" fill="black"/>
</g>
</g>
</g>
</svg>
