<svg width="169" height="169" viewBox="0 0 169 169" fill="none" xmlns="http://www.w3.org/2000/svg">
<g id="pattern-white-opc-90">
<g id="Mask Group">
<mask id="mask0" mask-type="alpha" maskUnits="userSpaceOnUse" x="0" y="0" width="169" height="169">
<path id="Rectangle 723" d="M0.693359 0.281738H168.893V168.482H0.693359V0.281738Z" fill="#C4C4C4"/>
</mask>
<g mask="url(#mask0)">
<path id="Vector" d="M91.5932 7.58173L84.2854 0.273926H87.6854L91.5932 4.18172L95.501 0.273926H98.901L91.5932 7.58173Z" fill="white" fill-opacity="0.09"/>
<path id="Vector_2" d="M103.993 147.997L111.693 155.697L98.9099 168.48H95.5099L108.293 155.697L103.993 151.397L87.2933 168.097L87.676 168.48H84.276L83.8933 168.097L103.993 147.997Z" fill="white" fill-opacity="0.09"/>
<path id="Vector_3" d="M97.9933 37.1818L105.693 29.4818L76.9399 0.267029H73.5867L102.293 29.4818L97.9933 33.7818L64.4786 0.267029H61.0786L97.9933 37.1818Z" fill="white" fill-opacity="0.09"/>
<path id="Vector_4" d="M60.6934 168.097L68.2934 159.697L76.9445 168.487H73.5913L68.3934 163.197L63.9934 167.997L64.4747 168.478H61.0746L60.6934 168.097Z" fill="white" fill-opacity="0.09"/>
<path id="Vector_5" d="M43.8934 19.1817L57.5934 5.48172L52.3918 0.28009H47.395L43.8934 3.78172L40.3918 0.28009H37.0918L43.9934 7.18172L49.9934 1.18172L54.2934 5.48172L43.9934 15.7817L28.5017 0.290038H25.0017L43.8934 19.1817Z" fill="white" fill-opacity="0.09"/>
<g id="Vector_6">
<path d="M24.1934 167.697L31.8934 159.997L40.3671 168.471H37.0671L31.9934 163.397L27.6934 167.697L28.4697 168.473H24.9697L24.1934 167.697Z" fill="white" fill-opacity="0.09"/>
<path d="M47.4208 168.47L49.8934 165.997L52.366 168.47H47.4208Z" fill="white" fill-opacity="0.09"/>
</g>
<path id="Vector_7" d="M115.793 31.1817L96.1934 11.4817L107.462 0.269592H110.874L99.5934 11.4817L115.793 27.7817L126.293 17.4817L121.693 13.1817L115.893 19.2817L108.393 11.4817L119.506 0.276069H122.899L111.693 11.4817L115.793 15.7817L121.593 9.78172L129.793 17.4817L115.793 31.1817Z" fill="white" fill-opacity="0.09"/>
<path id="Vector_8" d="M115.993 159.997L123.693 167.697L122.946 168.444H119.552L120.293 167.697L115.993 163.397L110.888 168.471H107.476L115.993 159.997Z" fill="white" fill-opacity="0.09"/>
<path id="Vector_9" d="M7.49335 88.3817L15.1934 96.0817L0.692139 110.583V107.083L11.7934 95.9817L7.49335 91.6817L0.698353 98.4767V95.1767L7.49335 88.3817Z" fill="white" fill-opacity="0.09"/>
<g id="Vector_10">
<path d="M3.59338 83.5818L0.701416 86.4738V80.5934L3.59338 83.5818Z" fill="white" fill-opacity="0.09"/>
<path d="M3.69339 71.4818L0.713192 74.3643V68.6926L3.69339 71.4818Z" fill="white" fill-opacity="0.09"/>
</g>
<g id="Vector_11">
<path d="M1.89334 141.982L9.59333 149.682L0.704 158.571V155.171L6.19334 149.682L1.89334 145.382L0.703979 146.611V143.211L1.89334 141.982Z" fill="white" fill-opacity="0.09"/>
<path d="M13.8933 145.182L1.89334 133.382L0.704697 134.57V131.17L1.89334 129.982L13.8933 141.782L18.1933 137.682L1.89334 121.382L0.698975 122.576V119.176L1.89334 117.982L21.5933 137.682L13.8933 145.182Z" fill="white" fill-opacity="0.09"/>
</g>
<path id="Vector_12" d="M9.49346 17.5817L1.89345 25.6817L0.694824 24.5171V21.0167L1.89345 22.1817L6.29346 17.4817L0.705873 11.7897V8.54486L9.49346 17.5817Z" fill="white" fill-opacity="0.09"/>
<path id="Vector_13" d="M66.2935 53.5817L85.9935 73.2817L93.6935 65.5817L73.9935 45.8817L66.2935 53.5817ZM85.9935 69.8817L69.6935 53.5817L73.9935 49.2817L90.2935 65.5817L85.9935 69.8817Z" fill="white" fill-opacity="0.09"/>
<path id="Vector_14" d="M97.9934 45.8817L73.9935 21.8817L48.2935 47.5817L55.9935 55.2817L73.9935 37.2817L116.093 79.3817L141.793 53.6817L134.093 45.9817L116.093 63.9817L105.693 53.5817L110.393 48.8817L116.393 54.8817L124.093 47.1817L110.393 33.4817L97.9934 45.8817ZM116.393 51.4817L110.393 45.4817L102.293 53.5817L115.993 67.2817L133.993 49.2817L138.293 53.5817L115.993 75.8817L73.8934 33.7817L55.8934 51.7817L51.5934 47.4817L73.8934 25.1817L97.8935 49.1817L110.293 36.7817L120.593 47.0817L116.393 51.4817Z" fill="white" fill-opacity="0.09"/>
<path id="Vector_15" d="M55.9933 63.8818L37.5933 45.4818L29.8933 53.1817L55.9933 79.2818L69.6933 65.5818L61.9933 57.8818L55.9933 63.8818ZM55.9933 75.8818L33.2933 53.1817L37.5933 48.8818L55.9933 67.2818L61.9933 61.2818L66.2933 65.5818L55.9933 75.8818Z" fill="white" fill-opacity="0.09"/>
<path id="Vector_16" d="M85.9935 97.2817L93.6935 89.5817L73.9935 69.8817L48.2935 95.5817L55.9935 103.282L73.9935 85.2817L85.9935 97.2817ZM51.6935 95.5817L73.9935 73.2817L90.2935 89.5817L85.9935 93.8817L73.9935 81.8817L55.9935 99.8817L51.6935 95.5817Z" fill="white" fill-opacity="0.09"/>
<path id="Vector_17" d="M85.9935 105.882L73.9935 93.8817L66.2935 101.582L85.9935 121.282L117.693 89.5817L109.993 81.8817L85.9935 105.882ZM85.9935 117.982L69.6935 101.582L73.9935 97.2817L85.9935 109.282L109.993 85.2817L114.293 89.5817L85.9935 117.982Z" fill="white" fill-opacity="0.09"/>
<path id="Vector_18" d="M54.2935 113.582L67.9935 127.282L75.6935 119.582L61.9935 105.882L54.2935 113.582ZM67.9935 123.982L57.6935 113.582L61.9935 109.282L72.2935 119.582L67.9935 123.982Z" fill="white" fill-opacity="0.09"/>
<path id="Vector_19" d="M128.015 75.8825L120.308 83.5898L146.047 109.328L153.754 101.621L128.015 75.8825Z" fill="white" fill-opacity="0.09"/>
<path id="Vector_20" d="M109.993 121.382L121.993 109.382L126.293 113.682L114.293 125.682L121.993 133.382L133.993 121.382L145.993 133.382L153.693 125.682L121.993 93.9817L102.293 113.682L109.993 121.382ZM150.393 125.682L146.093 129.982L134.093 117.982L122.093 129.982L117.793 125.682L129.793 113.682L122.093 105.982L110.093 117.982L105.793 113.682L122.093 97.3817L150.393 125.682Z" fill="white" fill-opacity="0.09"/>
<path id="Vector_21" d="M122.093 141.982L98.0933 117.982L90.3933 125.682L122.093 157.382L141.793 137.682L134.093 129.982L122.093 141.982ZM122.093 153.982L93.6933 125.682L97.9933 121.382L121.993 145.382L133.993 133.382L138.293 137.682L122.093 153.982Z" fill="white" fill-opacity="0.09"/>
<path id="Vector_22" d="M37.9935 145.382L57.6935 125.682L49.9935 117.982L30.2935 137.682L37.9935 145.382ZM54.2935 125.682L37.9935 141.982L33.6935 137.682L49.9935 121.382L54.2935 125.682Z" fill="white" fill-opacity="0.09"/>
<path id="Vector_23" d="M90.2935 77.5817L97.9934 85.2817L105.693 77.5817L97.9934 69.8817L90.2935 77.5817ZM97.9934 81.8817L93.6935 77.5817L97.9934 73.2817L102.293 77.5817L97.9934 81.8817Z" fill="white" fill-opacity="0.09"/>
<path id="Vector_24" d="M72.2935 131.682L79.9935 139.382L87.6935 131.682L79.9935 123.982L72.2935 131.682ZM79.9935 135.982L75.6935 131.682L79.9935 127.382L84.2935 131.682L79.9935 135.982Z" fill="white" fill-opacity="0.09"/>
<path id="Vector_25" d="M80.012 127.291L75.6987 131.604L80.012 135.917L84.3253 131.604L80.012 127.291Z" fill="white" fill-opacity="0.09"/>
<path id="Vector_26" d="M61.9935 129.982L54.2935 137.682L79.9935 163.382L99.6935 143.682L91.9934 135.982L79.9935 147.982L61.9935 129.982ZM96.2935 143.682L79.9935 159.982L57.6935 137.682L61.9935 133.382L79.9935 151.382L91.9934 139.382L96.2935 143.682Z" fill="white" fill-opacity="0.09"/>
<path id="Vector_27" d="M49.9935 157.382L55.9935 163.382L63.6935 155.682L49.9935 141.982L36.2935 155.682L43.9935 163.382L49.9935 157.382ZM49.9935 145.382L60.2935 155.682L55.9935 159.982L49.9935 153.982L43.9935 159.982L39.6935 155.682L49.9935 145.382Z" fill="white" fill-opacity="0.09"/>
<path id="Vector_28" d="M120.293 35.4818L128.093 43.2818L133.793 37.2818L146.093 49.4818L153.793 41.5818L133.693 22.4818L120.293 35.4818Z" fill="white" fill-opacity="0.09"/>
<path id="Vector_29" d="M54.2935 17.4817L61.9935 25.1817L69.6935 17.4817L61.9935 9.78174L54.2935 17.4817ZM61.9935 21.7817L57.6935 17.4817L61.9935 13.1817L66.2935 17.4817L61.9935 21.7817Z" fill="white" fill-opacity="0.09"/>
<path id="Vector_30" d="M21.5933 29.9817L1.89329 49.6817L0.697754 48.4862V45.0808L1.89329 46.2817L18.1933 29.8817L13.8933 25.5817L1.89329 37.5817L0.700808 36.3893V33.0893L1.89329 34.2817L13.8933 22.2817L21.5933 29.9817Z" fill="white" fill-opacity="0.09"/>
<path id="Vector_31" fill-rule="evenodd" clip-rule="evenodd" d="M7.89338 67.2817L33.5934 41.5817L25.8934 33.8817L0.692627 59.0825V60.081L7.89338 67.2817ZM3.59338 59.5817L7.89338 63.8817L30.1934 41.5817L25.8934 37.2817L3.59338 59.5817Z" fill="white" fill-opacity="0.09"/>
<path id="Vector_32" d="M6.19336 77.5817L13.8934 85.2817L33.5934 65.5817L25.8934 57.8817L6.19336 77.5817ZM13.8934 81.8817L9.59335 77.5817L25.8934 61.2817L30.1934 65.5817L13.8934 81.8817Z" fill="white" fill-opacity="0.09"/>
<path id="Vector_33" d="M37.9935 85.2817L43.9935 91.2817L51.6935 83.5817L37.9935 69.8817L18.2935 89.5817L25.9935 97.2817L37.9935 85.2817ZM37.9935 73.2817L48.2935 83.5817L43.9935 87.8817L37.9935 81.8817L25.9935 93.8817L21.6935 89.5817L37.9935 73.2817Z" fill="white" fill-opacity="0.09"/>
<path id="Vector_34" d="M25.4934 132.982L33.1934 125.282L21.5934 113.682L27.5934 107.682L19.8934 99.9817L6.19336 113.682L25.4934 132.982ZM24.1934 107.582L18.1934 113.582L29.7934 125.182L25.4934 129.482L9.59335 113.582L19.8934 103.282L24.1934 107.582Z" fill="white" fill-opacity="0.09"/>
<path id="Vector_35" d="M37.9934 121.382L51.6934 107.582L37.9934 93.8817L30.1934 101.582L36.2934 107.582L30.1934 113.582L37.9934 121.382Z" fill="white" fill-opacity="0.09"/>
<path id="Vector_36" d="M33.5933 149.682L25.8933 141.982L12.5933 155.282L20.2933 162.982L33.5933 149.682ZM25.8933 145.382L30.1933 149.682L20.2933 159.582L15.9933 155.282L25.8933 145.382Z" fill="white" fill-opacity="0.09"/>
<path id="Vector_37" d="M25.8606 145.361L15.9612 155.261L20.2745 159.574L30.1739 149.675L25.8606 145.361Z" fill="white" fill-opacity="0.09"/>
<g id="Vector_38">
<path d="M139.993 19.1817L126.193 5.48172L131.233 0.268555H134.533L129.493 5.48172L139.893 15.7817L155.685 0.278934H159.187L139.993 19.1817Z" fill="white" fill-opacity="0.09"/>
<path d="M146.493 1.18171L145.599 0.287591H147.387L146.493 1.18171Z" fill="white" fill-opacity="0.09"/>
</g>
<path id="Vector_39" d="M152.093 160.397L159.793 167.897L159.188 168.493H155.686L156.293 167.897L156.093 167.697L152.093 163.797L148.193 167.697L147.406 168.484H145.581L144.793 167.697L134.493 157.397L129.793 161.797L135.293 167.697L134.534 168.483H131.234L131.993 167.697L126.393 161.597L134.493 153.997L146.493 165.997L152.093 160.397Z" fill="white" fill-opacity="0.09"/>
<path id="Vector_40" d="M13.8935 13.1817L21.5935 5.48168L16.3774 0.265503L13.017 0.305149L18.1936 5.48168L13.8935 9.78168L4.40439 0.292518H1.00439L13.8935 13.1817Z" fill="white" fill-opacity="0.09"/>
<path id="Vector_41" d="M7.49349 162.997L3.19349 167.297L4.37039 168.474H0.970398L0.699951 168.204V166.391L7.49349 159.597L16.3813 168.485H12.9813L7.49349 162.997Z" fill="white" fill-opacity="0.09"/>
<path id="Vector_42" d="M158.093 121.282L150.393 113.582L168.9 95.0754V98.4754L153.793 113.582L158.093 117.882L168.892 107.083V110.483L158.093 121.282Z" fill="white" fill-opacity="0.09"/>
<path id="Vector_43" d="M132.393 71.5817L140.093 79.2817L165.793 53.5817L158.093 45.8817L132.393 71.5817ZM140.093 75.8817L135.793 71.5817L158.093 49.2817L162.393 53.5817L140.093 75.8817Z" fill="white" fill-opacity="0.09"/>
<path id="Vector_44" fill-rule="evenodd" clip-rule="evenodd" d="M144.393 83.5818L158.093 97.2818L168.896 86.4788V80.5881L165.793 77.3818L168.923 74.3543L168.877 68.659L164.093 64.1818L144.393 83.5818ZM162.393 77.3818L168.393 71.5818L164.093 67.5818L147.793 83.5818L158.093 93.8818L168.393 83.5818L162.393 77.3818Z" fill="white" fill-opacity="0.09"/>
<g id="Vector_45">
<path d="M152.093 151.382L146.093 157.382L138.393 149.682L168.898 119.177V122.577L141.793 149.682L146.093 153.982L152.093 147.982L164.093 159.982L168.883 155.192V158.592L164.093 163.382L152.093 151.382Z" fill="white" fill-opacity="0.09"/>
<path d="M159.793 143.682L164.093 148.182L168.887 143.228V146.628L164.093 151.582L156.393 143.682L168.886 131.189V134.589L159.793 143.682Z" fill="white" fill-opacity="0.09"/>
</g>
<path id="Vector_46" d="M155.993 11.9817L163.593 3.08173L168.9 8.53907V11.784L163.793 6.58173L159.393 11.7817L168.884 21.0063V24.5067L155.993 11.9817Z" fill="white" fill-opacity="0.09"/>
<path id="Vector_47" d="M170.093 1.1817L182.093 13.1817L189.793 5.4817L175.693 -8.61829L170.093 -3.0183L167.993 -0.918289L170.093 1.1817ZM175.693 -5.21829L186.393 5.4817L182.093 9.78171L171.393 -0.918289L175.693 -5.21829Z" fill="white" fill-opacity="0.09"/>
<path id="Vector_48" d="M43.9935 43.2817L57.6935 29.5817L49.9935 21.8817L43.9935 27.8817L25.9935 9.88171L18.2935 17.5817L43.9935 43.2817ZM43.9935 31.1817L49.9935 25.1817L54.2935 29.4817L43.9935 39.7817L21.6935 17.4817L25.9935 13.1817L43.9935 31.1817Z" fill="white" fill-opacity="0.09"/>
<path id="Vector_49" d="M144.393 23.9817L152.093 16.2817L168.915 33.1031V36.4031L152.093 19.5817L147.793 23.8817L168.902 45.0853V48.4906L144.393 23.9817Z" fill="white" fill-opacity="0.09"/>
<path id="Vector_50" d="M168.393 59.5817L168.89 59.0854V60.0779L168.393 59.5817Z" fill="white" fill-opacity="0.09"/>
<path id="Vector_51" d="M62.0067 13.1684L57.6934 17.4818L62.0067 21.7951L66.32 17.4818L62.0067 13.1684Z" fill="white" fill-opacity="0.09"/>
<path id="Vector_52" d="M167.993 167.282L168.883 166.392V168.171L167.993 167.282Z" fill="white" fill-opacity="0.09"/>
</g>
</g>
</g>
</svg>
