<svg width="170" height="169" viewBox="0 0 170 169" fill="none" xmlns="http://www.w3.org/2000/svg">
<g id="pattern-primary-yellow">
<g id="Mask Group">
<mask id="mask0" mask-type="alpha" maskUnits="userSpaceOnUse" x="0" y="0" width="170" height="169">
<path id="Rectangle 723" d="M0.893555 0.281738H169.094V168.482H0.893555V0.281738Z" fill="#C4C4C4"/>
</mask>
<g mask="url(#mask0)">
<path id="Vector" d="M91.7934 7.58173L84.4856 0.273926H87.8856L91.7934 4.18172L95.7012 0.273926H99.1012L91.7934 7.58173Z" fill="#F1E50D"/>
<path id="Vector_2" d="M104.193 147.997L111.894 155.697L99.1101 168.48H95.7101L108.494 155.697L104.193 151.397L87.4935 168.097L87.8762 168.48H84.4762L84.0935 168.097L104.193 147.997Z" fill="#F1E50D"/>
<path id="Vector_3" d="M98.1935 37.1818L105.894 29.4818L77.1401 0.267029H73.7869L102.494 29.4818L98.1935 33.7818L64.6788 0.267029H61.2788L98.1935 37.1818Z" fill="#F1E50D"/>
<path id="Vector_4" d="M60.8936 168.097L68.4936 159.697L77.1447 168.487H73.7915L68.5936 163.197L64.1936 167.997L64.6748 168.478H61.2748L60.8936 168.097Z" fill="#F1E50D"/>
<path id="Vector_5" d="M44.0936 19.1817L57.7936 5.48172L52.5919 0.28009H47.5952L44.0936 3.78172L40.592 0.28009H37.292L44.1936 7.18172L50.1936 1.18172L54.4936 5.48172L44.1936 15.7817L28.7019 0.290038H25.2019L44.0936 19.1817Z" fill="#F1E50D"/>
<g id="Vector_6">
<path d="M24.3936 167.697L32.0936 159.997L40.5673 168.471H37.2673L32.1936 163.397L27.8936 167.697L28.6699 168.473H25.1699L24.3936 167.697Z" fill="#F1E50D"/>
<path d="M47.6209 168.47L50.0936 165.997L52.5662 168.47H47.6209Z" fill="#F1E50D"/>
</g>
<path id="Vector_7" d="M115.994 31.1817L96.3936 11.4817L107.663 0.269592H111.074L99.7935 11.4817L115.994 27.7817L126.494 17.4817L121.894 13.1817L116.094 19.2817L108.594 11.4817L119.706 0.276069H123.099L111.894 11.4817L115.994 15.7817L121.794 9.78172L129.994 17.4817L115.994 31.1817Z" fill="#F1E50D"/>
<path id="Vector_8" d="M116.194 159.997L123.894 167.697L123.146 168.444H119.753L120.494 167.697L116.194 163.397L111.088 168.471H107.676L116.194 159.997Z" fill="#F1E50D"/>
<path id="Vector_9" d="M7.69355 88.3817L15.3935 96.0817L0.892334 110.583V107.083L11.9936 95.9817L7.69355 91.6817L0.898548 98.4767V95.1767L7.69355 88.3817Z" fill="#F1E50D"/>
<g id="Vector_10">
<path d="M3.79358 83.5818L0.901611 86.4738V80.5934L3.79358 83.5818Z" fill="#F1E50D"/>
<path d="M3.89358 71.4818L0.913387 74.3643V68.6926L3.89358 71.4818Z" fill="#F1E50D"/>
</g>
<g id="Vector_11">
<path d="M2.09353 141.982L9.79353 149.682L0.904196 158.571V155.171L6.39354 149.682L2.09353 145.382L0.904175 146.611V143.211L2.09353 141.982Z" fill="#F1E50D"/>
<path d="M14.0935 145.182L2.09353 133.382L0.904892 134.57V131.17L2.09353 129.982L14.0935 141.782L18.3935 137.682L2.09353 121.382L0.89917 122.576V119.176L2.09353 117.982L21.7935 137.682L14.0935 145.182Z" fill="#F1E50D"/>
</g>
<path id="Vector_12" d="M9.69365 17.5817L2.09365 25.6817L0.89502 24.5171V21.0167L2.09365 22.1817L6.49366 17.4817L0.906069 11.7897V8.54486L9.69365 17.5817Z" fill="#F1E50D"/>
<path id="Vector_13" d="M66.4937 53.5817L86.1936 73.2817L93.8936 65.5817L74.1936 45.8817L66.4937 53.5817ZM86.1936 69.8817L69.8936 53.5817L74.1936 49.2817L90.4937 65.5817L86.1936 69.8817Z" fill="#F1E50D"/>
<path id="Vector_14" d="M98.1936 45.8817L74.1936 21.8817L48.4937 47.5817L56.1936 55.2817L74.1936 37.2817L116.294 79.3817L141.994 53.6817L134.294 45.9817L116.294 63.9817L105.894 53.5817L110.594 48.8817L116.594 54.8817L124.294 47.1817L110.594 33.4817L98.1936 45.8817ZM116.594 51.4817L110.594 45.4817L102.494 53.5817L116.194 67.2817L134.194 49.2817L138.494 53.5817L116.194 75.8817L74.0936 33.7817L56.0936 51.7817L51.7936 47.4817L74.0936 25.1817L98.0937 49.1817L110.494 36.7817L120.794 47.0817L116.594 51.4817Z" fill="#F1E50D"/>
<path id="Vector_15" d="M56.1935 63.8818L37.7935 45.4818L30.0935 53.1817L56.1935 79.2818L69.8935 65.5818L62.1935 57.8818L56.1935 63.8818ZM56.1935 75.8818L33.4935 53.1817L37.7935 48.8818L56.1935 67.2818L62.1935 61.2818L66.4935 65.5818L56.1935 75.8818Z" fill="#F1E50D"/>
<path id="Vector_16" d="M86.1936 97.2817L93.8936 89.5817L74.1936 69.8817L48.4937 95.5817L56.1936 103.282L74.1936 85.2817L86.1936 97.2817ZM51.8936 95.5817L74.1936 73.2817L90.4937 89.5817L86.1936 93.8817L74.1936 81.8817L56.1936 99.8817L51.8936 95.5817Z" fill="#F1E50D"/>
<path id="Vector_17" d="M86.1936 105.882L74.1936 93.8817L66.4937 101.582L86.1936 121.282L117.894 89.5817L110.194 81.8817L86.1936 105.882ZM86.1936 117.982L69.8936 101.582L74.1936 97.2817L86.1936 109.282L110.194 85.2817L114.494 89.5817L86.1936 117.982Z" fill="#F1E50D"/>
<path id="Vector_18" d="M54.4937 113.582L68.1936 127.282L75.8936 119.582L62.1936 105.882L54.4937 113.582ZM68.1936 123.982L57.8936 113.582L62.1936 109.282L72.4937 119.582L68.1936 123.982Z" fill="#F1E50D"/>
<path id="Vector_19" d="M128.216 75.8825L120.508 83.5898L146.247 109.328L153.954 101.621L128.216 75.8825Z" fill="#F1E50D"/>
<path id="Vector_20" d="M110.194 121.382L122.194 109.382L126.494 113.682L114.494 125.682L122.194 133.382L134.194 121.382L146.194 133.382L153.894 125.682L122.194 93.9817L102.494 113.682L110.194 121.382ZM150.594 125.682L146.294 129.982L134.294 117.982L122.294 129.982L117.994 125.682L129.994 113.682L122.294 105.982L110.294 117.982L105.994 113.682L122.294 97.3817L150.594 125.682Z" fill="#F1E50D"/>
<path id="Vector_21" d="M122.293 141.982L98.2935 117.982L90.5935 125.682L122.293 157.382L141.993 137.682L134.293 129.982L122.293 141.982ZM122.293 153.982L93.8935 125.682L98.1935 121.382L122.193 145.382L134.193 133.382L138.493 137.682L122.293 153.982Z" fill="#F1E50D"/>
<path id="Vector_22" d="M38.1936 145.382L57.8936 125.682L50.1936 117.982L30.4937 137.682L38.1936 145.382ZM54.4937 125.682L38.1936 141.982L33.8936 137.682L50.1936 121.382L54.4937 125.682Z" fill="#F1E50D"/>
<path id="Vector_23" d="M90.4937 77.5817L98.1936 85.2817L105.894 77.5817L98.1936 69.8817L90.4937 77.5817ZM98.1936 81.8817L93.8936 77.5817L98.1936 73.2817L102.494 77.5817L98.1936 81.8817Z" fill="#F1E50D"/>
<path id="Vector_24" d="M72.4937 131.682L80.1936 139.382L87.8936 131.682L80.1936 123.982L72.4937 131.682ZM80.1936 135.982L75.8936 131.682L80.1936 127.382L84.4937 131.682L80.1936 135.982Z" fill="#F1E50D"/>
<path id="Vector_25" d="M80.2122 127.291L75.8989 131.604L80.2122 135.917L84.5255 131.604L80.2122 127.291Z" fill="#F1E50D"/>
<path id="Vector_26" d="M62.1936 129.982L54.4937 137.682L80.1936 163.382L99.8936 143.682L92.1936 135.982L80.1936 147.982L62.1936 129.982ZM96.4937 143.682L80.1936 159.982L57.8936 137.682L62.1936 133.382L80.1936 151.382L92.1936 139.382L96.4937 143.682Z" fill="#F1E50D"/>
<path id="Vector_27" d="M50.1936 157.382L56.1936 163.382L63.8936 155.682L50.1936 141.982L36.4937 155.682L44.1936 163.382L50.1936 157.382ZM50.1936 145.382L60.4937 155.682L56.1936 159.982L50.1936 153.982L44.1936 159.982L39.8936 155.682L50.1936 145.382Z" fill="#F1E50D"/>
<path id="Vector_28" d="M120.494 35.4818L128.294 43.2818L133.994 37.2818L146.294 49.4818L153.994 41.5818L133.894 22.4818L120.494 35.4818Z" fill="#F1E50D"/>
<path id="Vector_29" d="M54.4937 17.4817L62.1936 25.1817L69.8936 17.4817L62.1936 9.78174L54.4937 17.4817ZM62.1936 21.7817L57.8936 17.4817L62.1936 13.1817L66.4937 17.4817L62.1936 21.7817Z" fill="#F1E50D"/>
<path id="Vector_30" d="M21.7935 29.9817L2.09348 49.6817L0.897949 48.4862V45.0808L2.09348 46.2817L18.3935 29.8817L14.0935 25.5817L2.09348 37.5817L0.901003 36.3893V33.0893L2.09348 34.2817L14.0935 22.2817L21.7935 29.9817Z" fill="#F1E50D"/>
<path id="Vector_31" fill-rule="evenodd" clip-rule="evenodd" d="M8.09357 67.2817L33.7936 41.5817L26.0936 33.8817L0.892822 59.0825V60.081L8.09357 67.2817ZM3.79357 59.5817L8.09357 63.8817L30.3936 41.5817L26.0936 37.2817L3.79357 59.5817Z" fill="#F1E50D"/>
<path id="Vector_32" d="M6.39355 77.5817L14.0936 85.2817L33.7935 65.5817L26.0936 57.8817L6.39355 77.5817ZM14.0936 81.8817L9.79355 77.5817L26.0936 61.2817L30.3936 65.5817L14.0936 81.8817Z" fill="#F1E50D"/>
<path id="Vector_33" d="M38.1936 85.2817L44.1936 91.2817L51.8936 83.5817L38.1936 69.8817L18.4937 89.5817L26.1936 97.2817L38.1936 85.2817ZM38.1936 73.2817L48.4937 83.5817L44.1936 87.8817L38.1936 81.8817L26.1936 93.8817L21.8936 89.5817L38.1936 73.2817Z" fill="#F1E50D"/>
<path id="Vector_34" d="M25.6936 132.982L33.3936 125.282L21.7935 113.682L27.7935 107.682L20.0936 99.9817L6.39355 113.682L25.6936 132.982ZM24.3936 107.582L18.3936 113.582L29.9936 125.182L25.6936 129.482L9.79355 113.582L20.0936 103.282L24.3936 107.582Z" fill="#F1E50D"/>
<path id="Vector_35" d="M38.1936 121.382L51.8936 107.582L38.1936 93.8817L30.3936 101.582L36.4936 107.582L30.3936 113.582L38.1936 121.382Z" fill="#F1E50D"/>
<path id="Vector_36" d="M33.7935 149.682L26.0935 141.982L12.7935 155.282L20.4935 162.982L33.7935 149.682ZM26.0935 145.382L30.3935 149.682L20.4935 159.582L16.1935 155.282L26.0935 145.382Z" fill="#F1E50D"/>
<path id="Vector_37" d="M26.0608 145.361L16.1614 155.261L20.4747 159.574L30.3741 149.675L26.0608 145.361Z" fill="#F1E50D"/>
<g id="Vector_38">
<path d="M140.194 19.1817L126.394 5.48172L131.433 0.268555H134.733L129.694 5.48172L140.094 15.7817L155.885 0.278934H159.387L140.194 19.1817Z" fill="#F1E50D"/>
<path d="M146.694 1.18171L145.799 0.287591H147.588L146.694 1.18171Z" fill="#F1E50D"/>
</g>
<path id="Vector_39" d="M152.293 160.397L159.993 167.897L159.388 168.493H155.886L156.493 167.897L156.293 167.697L152.293 163.797L148.393 167.697L147.606 168.484H145.781L144.993 167.697L134.693 157.397L129.993 161.797L135.493 167.697L134.734 168.483H131.434L132.193 167.697L126.594 161.597L134.693 153.997L146.693 165.997L152.293 160.397Z" fill="#F1E50D"/>
<path id="Vector_40" d="M14.0937 13.1817L21.7937 5.48168L16.5776 0.265503L13.2172 0.305149L18.3937 5.48168L14.0937 9.78168L4.60458 0.292518H1.20459L14.0937 13.1817Z" fill="#F1E50D"/>
<path id="Vector_41" d="M7.69368 162.997L3.39368 167.297L4.57059 168.474H1.17059L0.900146 168.204V166.391L7.69368 159.597L16.5815 168.485H13.1815L7.69368 162.997Z" fill="#F1E50D"/>
<path id="Vector_42" d="M158.293 121.282L150.594 113.582L169.1 95.0754V98.4754L153.993 113.582L158.293 117.882L169.092 107.083V110.483L158.293 121.282Z" fill="#F1E50D"/>
<path id="Vector_43" d="M132.594 71.5817L140.293 79.2817L165.993 53.5817L158.293 45.8817L132.594 71.5817ZM140.293 75.8817L135.993 71.5817L158.293 49.2817L162.594 53.5817L140.293 75.8817Z" fill="#F1E50D"/>
<path id="Vector_44" fill-rule="evenodd" clip-rule="evenodd" d="M144.594 83.5818L158.293 97.2818L169.096 86.4788V80.5881L165.993 77.3818L169.124 74.3543L169.077 68.659L164.293 64.1818L144.594 83.5818ZM162.594 77.3818L168.594 71.5818L164.293 67.5818L147.993 83.5818L158.293 93.8818L168.594 83.5818L162.594 77.3818Z" fill="#F1E50D"/>
<g id="Vector_45">
<path d="M152.293 151.382L146.293 157.382L138.594 149.682L169.098 119.177V122.577L141.993 149.682L146.293 153.982L152.293 147.982L164.293 159.982L169.083 155.192V158.592L164.293 163.382L152.293 151.382Z" fill="#F1E50D"/>
<path d="M159.993 143.682L164.293 148.182L169.087 143.228V146.628L164.293 151.582L156.594 143.682L169.086 131.189V134.589L159.993 143.682Z" fill="#F1E50D"/>
</g>
<path id="Vector_46" d="M156.194 11.9817L163.794 3.08173L169.1 8.53907V11.784L163.994 6.58173L159.594 11.7817L169.084 21.0063V24.5067L156.194 11.9817Z" fill="#F1E50D"/>
<path id="Vector_47" d="M170.294 1.1817L182.294 13.1817L189.994 5.4817L175.894 -8.61829L170.294 -3.0183L168.194 -0.918289L170.294 1.1817ZM175.894 -5.21829L186.594 5.4817L182.294 9.78171L171.594 -0.918289L175.894 -5.21829Z" fill="#F1E50D"/>
<path id="Vector_48" d="M44.1936 43.2817L57.8936 29.5817L50.1936 21.8817L44.1936 27.8817L26.1936 9.88171L18.4937 17.5817L44.1936 43.2817ZM44.1936 31.1817L50.1936 25.1817L54.4937 29.4817L44.1936 39.7817L21.8936 17.4817L26.1936 13.1817L44.1936 31.1817Z" fill="#F1E50D"/>
<path id="Vector_49" d="M144.594 23.9817L152.293 16.2817L169.115 33.1031V36.4031L152.293 19.5817L147.993 23.8817L169.102 45.0853V48.4906L144.594 23.9817Z" fill="#F1E50D"/>
<path id="Vector_50" d="M168.594 59.5817L169.09 59.0854V60.0779L168.594 59.5817Z" fill="#F1E50D"/>
<path id="Vector_51" d="M62.2069 13.1684L57.8936 17.4818L62.2069 21.7951L66.5202 17.4818L62.2069 13.1684Z" fill="#F1E50D"/>
<path id="Vector_52" d="M168.194 167.282L169.083 166.392V168.171L168.194 167.282Z" fill="#F1E50D"/>
</g>
</g>
</g>
</svg>
