<svg width="169" height="169" viewBox="0 0 169 169" fill="none" xmlns="http://www.w3.org/2000/svg">
<g id="pattern-orange-smoke" opacity="0.09">
<g id="Mask Group">
<mask id="mask0" mask-type="alpha" maskUnits="userSpaceOnUse" x="0" y="0" width="169" height="169">
<path id="Rectangle 723" d="M0.0932617 0.281738H168.293V168.482H0.0932617V0.281738Z" fill="#C4C4C4"/>
</mask>
<g mask="url(#mask0)">
<path id="Vector" d="M90.9931 7.58173L83.6853 0.273926H87.0853L90.9931 4.18172L94.9009 0.273926H98.3009L90.9931 7.58173Z" fill="#957100"/>
<path id="Vector_2" d="M103.393 147.997L111.093 155.697L98.3098 168.48H94.9098L107.693 155.697L103.393 151.397L86.6932 168.097L87.0759 168.48H83.6759L83.2932 168.097L103.393 147.997Z" fill="#957100"/>
<path id="Vector_3" d="M97.3932 37.1818L105.093 29.4818L76.3398 0.267029H72.9866L101.693 29.4818L97.3932 33.7818L63.8785 0.267029H60.4785L97.3932 37.1818Z" fill="#957100"/>
<path id="Vector_4" d="M60.0933 168.097L67.6933 159.697L76.3444 168.487H72.9912L67.7933 163.197L63.3933 167.997L63.8746 168.478H60.4745L60.0933 168.097Z" fill="#957100"/>
<path id="Vector_5" d="M43.2933 19.1817L56.9933 5.48172L51.7917 0.28009H46.7949L43.2933 3.78172L39.7917 0.28009H36.4917L43.3933 7.18172L49.3933 1.18172L53.6933 5.48172L43.3933 15.7817L27.9016 0.290038H24.4016L43.2933 19.1817Z" fill="#957100"/>
<g id="Vector_6">
<path d="M23.5933 167.697L31.2933 159.997L39.767 168.471H36.467L31.3933 163.397L27.0933 167.697L27.8696 168.473H24.3696L23.5933 167.697Z" fill="#957100"/>
<path d="M46.8207 168.47L49.2933 165.997L51.7659 168.47H46.8207Z" fill="#957100"/>
</g>
<path id="Vector_7" d="M115.193 31.1817L95.5933 11.4817L106.862 0.269592H110.274L98.9933 11.4817L115.193 27.7817L125.693 17.4817L121.093 13.1817L115.293 19.2817L107.793 11.4817L118.906 0.276069H122.299L111.093 11.4817L115.193 15.7817L120.993 9.78172L129.193 17.4817L115.193 31.1817Z" fill="#957100"/>
<path id="Vector_8" d="M115.393 159.997L123.093 167.697L122.346 168.444H118.952L119.693 167.697L115.393 163.397L110.288 168.471H106.876L115.393 159.997Z" fill="#957100"/>
<path id="Vector_9" d="M6.89326 88.3817L14.5933 96.0817L0.092041 110.583V107.083L11.1933 95.9817L6.89326 91.6817L0.0982552 98.4767V95.1767L6.89326 88.3817Z" fill="#957100"/>
<g id="Vector_10">
<path d="M2.99328 83.5818L0.101318 86.4738V80.5934L2.99328 83.5818Z" fill="#957100"/>
<path d="M3.09329 71.4818L0.113094 74.3643V68.6926L3.09329 71.4818Z" fill="#957100"/>
</g>
<g id="Vector_11">
<path d="M1.29324 141.982L8.99324 149.682L0.103903 158.571V155.171L5.59324 149.682L1.29324 145.382L0.103882 146.611V143.211L1.29324 141.982Z" fill="#957100"/>
<path d="M13.2932 145.182L1.29324 133.382L0.104599 134.57V131.17L1.29324 129.982L13.2932 141.782L17.5932 137.682L1.29324 121.382L0.098877 122.576V119.176L1.29324 117.982L20.9932 137.682L13.2932 145.182Z" fill="#957100"/>
</g>
<path id="Vector_12" d="M8.89336 17.5817L1.29335 25.6817L0.0947266 24.5171V21.0167L1.29335 22.1817L5.69336 17.4817L0.105776 11.7897V8.54486L8.89336 17.5817Z" fill="#957100"/>
<path id="Vector_13" d="M65.6934 53.5817L85.3934 73.2817L93.0934 65.5817L73.3934 45.8817L65.6934 53.5817ZM85.3934 69.8817L69.0934 53.5817L73.3934 49.2817L89.6934 65.5817L85.3934 69.8817Z" fill="#957100"/>
<path id="Vector_14" d="M97.3933 45.8817L73.3934 21.8817L47.6934 47.5817L55.3934 55.2817L73.3934 37.2817L115.493 79.3817L141.193 53.6817L133.493 45.9817L115.493 63.9817L105.093 53.5817L109.793 48.8817L115.793 54.8817L123.493 47.1817L109.793 33.4817L97.3933 45.8817ZM115.793 51.4817L109.793 45.4817L101.693 53.5817L115.393 67.2817L133.393 49.2817L137.693 53.5817L115.393 75.8817L73.2934 33.7817L55.2934 51.7817L50.9933 47.4817L73.2934 25.1817L97.2934 49.1817L109.693 36.7817L119.993 47.0817L115.793 51.4817Z" fill="#957100"/>
<path id="Vector_15" d="M55.3932 63.8818L36.9932 45.4818L29.2932 53.1817L55.3932 79.2818L69.0932 65.5818L61.3932 57.8818L55.3932 63.8818ZM55.3932 75.8818L32.6932 53.1817L36.9932 48.8818L55.3932 67.2818L61.3932 61.2818L65.6932 65.5818L55.3932 75.8818Z" fill="#957100"/>
<path id="Vector_16" d="M85.3934 97.2817L93.0934 89.5817L73.3934 69.8817L47.6934 95.5817L55.3934 103.282L73.3934 85.2817L85.3934 97.2817ZM51.0934 95.5817L73.3934 73.2817L89.6934 89.5817L85.3934 93.8817L73.3934 81.8817L55.3934 99.8817L51.0934 95.5817Z" fill="#957100"/>
<path id="Vector_17" d="M85.3934 105.882L73.3934 93.8817L65.6934 101.582L85.3934 121.282L117.093 89.5817L109.393 81.8817L85.3934 105.882ZM85.3934 117.982L69.0934 101.582L73.3934 97.2817L85.3934 109.282L109.393 85.2817L113.693 89.5817L85.3934 117.982Z" fill="#957100"/>
<path id="Vector_18" d="M53.6934 113.582L67.3934 127.282L75.0934 119.582L61.3934 105.882L53.6934 113.582ZM67.3934 123.982L57.0934 113.582L61.3934 109.282L71.6934 119.582L67.3934 123.982Z" fill="#957100"/>
<path id="Vector_19" d="M127.415 75.8825L119.708 83.5898L145.446 109.328L153.154 101.621L127.415 75.8825Z" fill="#957100"/>
<path id="Vector_20" d="M109.393 121.382L121.393 109.382L125.693 113.682L113.693 125.682L121.393 133.382L133.393 121.382L145.393 133.382L153.093 125.682L121.393 93.9817L101.693 113.682L109.393 121.382ZM149.793 125.682L145.493 129.982L133.493 117.982L121.493 129.982L117.193 125.682L129.193 113.682L121.493 105.982L109.493 117.982L105.193 113.682L121.493 97.3817L149.793 125.682Z" fill="#957100"/>
<path id="Vector_21" d="M121.493 141.982L97.4932 117.982L89.7932 125.682L121.493 157.382L141.193 137.682L133.493 129.982L121.493 141.982ZM121.493 153.982L93.0932 125.682L97.3932 121.382L121.393 145.382L133.393 133.382L137.693 137.682L121.493 153.982Z" fill="#957100"/>
<path id="Vector_22" d="M37.3934 145.382L57.0934 125.682L49.3934 117.982L29.6934 137.682L37.3934 145.382ZM53.6934 125.682L37.3934 141.982L33.0934 137.682L49.3934 121.382L53.6934 125.682Z" fill="#957100"/>
<path id="Vector_23" d="M89.6934 77.5817L97.3933 85.2817L105.093 77.5817L97.3933 69.8817L89.6934 77.5817ZM97.3933 81.8817L93.0934 77.5817L97.3933 73.2817L101.693 77.5817L97.3933 81.8817Z" fill="#957100"/>
<path id="Vector_24" d="M71.6934 131.682L79.3934 139.382L87.0934 131.682L79.3934 123.982L71.6934 131.682ZM79.3934 135.982L75.0934 131.682L79.3934 127.382L83.6934 131.682L79.3934 135.982Z" fill="#957100"/>
<path id="Vector_25" d="M79.4119 127.291L75.0986 131.604L79.4119 135.917L83.7253 131.604L79.4119 127.291Z" fill="#957100"/>
<path id="Vector_26" d="M61.3934 129.982L53.6934 137.682L79.3934 163.382L99.0934 143.682L91.3933 135.982L79.3934 147.982L61.3934 129.982ZM95.6934 143.682L79.3934 159.982L57.0934 137.682L61.3934 133.382L79.3934 151.382L91.3933 139.382L95.6934 143.682Z" fill="#957100"/>
<path id="Vector_27" d="M49.3934 157.382L55.3934 163.382L63.0934 155.682L49.3934 141.982L35.6934 155.682L43.3934 163.382L49.3934 157.382ZM49.3934 145.382L59.6934 155.682L55.3934 159.982L49.3934 153.982L43.3934 159.982L39.0934 155.682L49.3934 145.382Z" fill="#957100"/>
<path id="Vector_28" d="M119.693 35.4818L127.493 43.2818L133.193 37.2818L145.493 49.4818L153.193 41.5818L133.093 22.4818L119.693 35.4818Z" fill="#957100"/>
<path id="Vector_29" d="M53.6934 17.4817L61.3934 25.1817L69.0934 17.4817L61.3934 9.78174L53.6934 17.4817ZM61.3934 21.7817L57.0934 17.4817L61.3934 13.1817L65.6934 17.4817L61.3934 21.7817Z" fill="#957100"/>
<path id="Vector_30" d="M20.9932 29.9817L1.29319 49.6817L0.0976562 48.4862V45.0808L1.29319 46.2817L17.5932 29.8817L13.2932 25.5817L1.29319 37.5817L0.10071 36.3893V33.0893L1.29319 34.2817L13.2932 22.2817L20.9932 29.9817Z" fill="#957100"/>
<path id="Vector_31" fill-rule="evenodd" clip-rule="evenodd" d="M7.29328 67.2817L32.9933 41.5817L25.2933 33.8817L0.0925293 59.0825V60.081L7.29328 67.2817ZM2.99328 59.5817L7.29328 63.8817L29.5933 41.5817L25.2933 37.2817L2.99328 59.5817Z" fill="#957100"/>
<path id="Vector_32" d="M5.59326 77.5817L13.2933 85.2817L32.9933 65.5817L25.2933 57.8817L5.59326 77.5817ZM13.2933 81.8817L8.99326 77.5817L25.2933 61.2817L29.5933 65.5817L13.2933 81.8817Z" fill="#957100"/>
<path id="Vector_33" d="M37.3934 85.2817L43.3934 91.2817L51.0934 83.5817L37.3934 69.8817L17.6934 89.5817L25.3934 97.2817L37.3934 85.2817ZM37.3934 73.2817L47.6934 83.5817L43.3934 87.8817L37.3934 81.8817L25.3934 93.8817L21.0934 89.5817L37.3934 73.2817Z" fill="#957100"/>
<path id="Vector_34" d="M24.8933 132.982L32.5933 125.282L20.9933 113.682L26.9933 107.682L19.2933 99.9817L5.59326 113.682L24.8933 132.982ZM23.5933 107.582L17.5933 113.582L29.1933 125.182L24.8933 129.482L8.99326 113.582L19.2933 103.282L23.5933 107.582Z" fill="#957100"/>
<path id="Vector_35" d="M37.3933 121.382L51.0933 107.582L37.3933 93.8817L29.5933 101.582L35.6933 107.582L29.5933 113.582L37.3933 121.382Z" fill="#957100"/>
<path id="Vector_36" d="M32.9932 149.682L25.2932 141.982L11.9932 155.282L19.6932 162.982L32.9932 149.682ZM25.2932 145.382L29.5932 149.682L19.6932 159.582L15.3932 155.282L25.2932 145.382Z" fill="#957100"/>
<path id="Vector_37" d="M25.2605 145.361L15.3611 155.261L19.6744 159.574L29.5738 149.675L25.2605 145.361Z" fill="#957100"/>
<g id="Vector_38">
<path d="M139.393 19.1817L125.593 5.48172L130.633 0.268555H133.933L128.893 5.48172L139.293 15.7817L155.085 0.278934H158.587L139.393 19.1817Z" fill="#957100"/>
<path d="M145.893 1.18171L144.999 0.287591H146.787L145.893 1.18171Z" fill="#957100"/>
</g>
<path id="Vector_39" d="M151.493 160.397L159.193 167.897L158.588 168.493H155.086L155.693 167.897L155.493 167.697L151.493 163.797L147.593 167.697L146.806 168.484H144.98L144.193 167.697L133.893 157.397L129.193 161.797L134.693 167.697L133.934 168.483H130.634L131.393 167.697L125.793 161.597L133.893 153.997L145.893 165.997L151.493 160.397Z" fill="#957100"/>
<path id="Vector_40" d="M13.2935 13.1817L20.9934 5.48168L15.7773 0.265503L12.4169 0.305149L17.5935 5.48168L13.2935 9.78168L3.80429 0.292518H0.404297L13.2935 13.1817Z" fill="#957100"/>
<path id="Vector_41" d="M6.89339 162.997L2.59339 167.297L3.77029 168.474H0.3703L0.0998535 168.204V166.391L6.89339 159.597L15.7812 168.485H12.3812L6.89339 162.997Z" fill="#957100"/>
<path id="Vector_42" d="M157.493 121.282L149.793 113.582L168.3 95.0754V98.4754L153.193 113.582L157.493 117.882L168.292 107.083V110.483L157.493 121.282Z" fill="#957100"/>
<path id="Vector_43" d="M131.793 71.5817L139.493 79.2817L165.193 53.5817L157.493 45.8817L131.793 71.5817ZM139.493 75.8817L135.193 71.5817L157.493 49.2817L161.793 53.5817L139.493 75.8817Z" fill="#957100"/>
<path id="Vector_44" fill-rule="evenodd" clip-rule="evenodd" d="M143.793 83.5818L157.493 97.2818L168.296 86.4788V80.5881L165.193 77.3818L168.323 74.3543L168.277 68.659L163.493 64.1818L143.793 83.5818ZM161.793 77.3818L167.793 71.5818L163.493 67.5818L147.193 83.5818L157.493 93.8818L167.793 83.5818L161.793 77.3818Z" fill="#957100"/>
<g id="Vector_45">
<path d="M151.493 151.382L145.493 157.382L137.793 149.682L168.298 119.177V122.577L141.193 149.682L145.493 153.982L151.493 147.982L163.493 159.982L168.283 155.192V158.592L163.493 163.382L151.493 151.382Z" fill="#957100"/>
<path d="M159.193 143.682L163.493 148.182L168.287 143.228V146.628L163.493 151.582L155.793 143.682L168.286 131.189V134.589L159.193 143.682Z" fill="#957100"/>
</g>
<path id="Vector_46" d="M155.393 11.9817L162.993 3.08173L168.3 8.53907V11.784L163.193 6.58173L158.793 11.7817L168.284 21.0063V24.5067L155.393 11.9817Z" fill="#957100"/>
<path id="Vector_47" d="M169.493 1.1817L181.493 13.1817L189.193 5.4817L175.093 -8.61829L169.493 -3.0183L167.393 -0.918289L169.493 1.1817ZM175.093 -5.21829L185.793 5.4817L181.493 9.78171L170.793 -0.918289L175.093 -5.21829Z" fill="#957100"/>
<path id="Vector_48" d="M43.3934 43.2817L57.0934 29.5817L49.3934 21.8817L43.3934 27.8817L25.3934 9.88171L17.6934 17.5817L43.3934 43.2817ZM43.3934 31.1817L49.3934 25.1817L53.6934 29.4817L43.3934 39.7817L21.0934 17.4817L25.3934 13.1817L43.3934 31.1817Z" fill="#957100"/>
<path id="Vector_49" d="M143.793 23.9817L151.493 16.2817L168.315 33.1031V36.4031L151.493 19.5817L147.193 23.8817L168.302 45.0853V48.4906L143.793 23.9817Z" fill="#957100"/>
<path id="Vector_50" d="M167.793 59.5817L168.289 59.0854V60.0779L167.793 59.5817Z" fill="#957100"/>
<path id="Vector_51" d="M61.4066 13.1684L57.0933 17.4818L61.4066 21.7951L65.7199 17.4818L61.4066 13.1684Z" fill="#957100"/>
<path id="Vector_52" d="M167.393 167.282L168.283 166.392V168.171L167.393 167.282Z" fill="#957100"/>
</g>
</g>
</g>
</svg>
